ISO-10303-21;
HEADER;
/* Generated by software containing ST-Developer
 * from STEP Tools, Inc. (www.steptools.com) 
 */

FILE_DESCRIPTION(
/* description */ (''),
/* implementation_level */ '2;1');

FILE_NAME(
/* name */ 'Lid_Spacer_8mm.step',
/* time_stamp */ '2026-10-02T17:06:11+03:00',
/* author */ (''),
/* organization */ (''),
/* preprocessor_version */ 'ST-DEVELOPER v20.2',
/* originating_system */ 'Autodesk Translation Framework v15.15.0.0',
/* authorisation */ '');

FILE_SCHEMA (('AUTOMOTIVE_DESIGN { 1 0 10303 214 3 1 1 }'));
ENDSEC;

DATA;
#10=MECHANICAL_DESIGN_GEOMETRIC_PRESENTATION_REPRESENTATION('',(#13),#1819);
#11=SHAPE_REPRESENTATION_RELATIONSHIP('SRR','None',#1826,#12);
#12=ADVANCED_BREP_SHAPE_REPRESENTATION('',(#14),#1818);
#13=STYLED_ITEM('',(#1836),#14);
#14=MANIFOLD_SOLID_BREP('G\X\F6vde1',#1103);
#15=CYLINDRICAL_SURFACE('',#1145,1.2);
#16=CYLINDRICAL_SURFACE('',#1147,1.19999999999999);
#17=CYLINDRICAL_SURFACE('',#1149,1.2);
#18=CYLINDRICAL_SURFACE('',#1151,1.19999999999999);
#19=CYLINDRICAL_SURFACE('',#1153,2.5);
#20=CYLINDRICAL_SURFACE('',#1170,2.5);
#21=CYLINDRICAL_SURFACE('',#1173,2.5);
#22=CYLINDRICAL_SURFACE('',#1187,2.5);
#23=CYLINDRICAL_SURFACE('',#1190,1.4);
#24=CYLINDRICAL_SURFACE('',#1192,1.40000000000001);
#25=CYLINDRICAL_SURFACE('',#1194,1.4);
#26=CYLINDRICAL_SURFACE('',#1196,1.4);
#27=CYLINDRICAL_SURFACE('',#1197,3.);
#28=CYLINDRICAL_SURFACE('',#1199,3.00000000000001);
#29=CYLINDRICAL_SURFACE('',#1200,3.);
#30=CYLINDRICAL_SURFACE('',#1202,3.);
#31=FACE_BOUND('',#144,.T.);
#32=FACE_BOUND('',#146,.T.);
#33=FACE_BOUND('',#148,.T.);
#34=FACE_BOUND('',#150,.T.);
#35=FACE_BOUND('',#158,.T.);
#36=FACE_BOUND('',#159,.T.);
#37=FACE_BOUND('',#160,.T.);
#38=FACE_BOUND('',#161,.T.);
#39=FACE_BOUND('',#162,.T.);
#40=FACE_BOUND('',#172,.T.);
#41=CIRCLE('',#1134,2.5);
#42=CIRCLE('',#1135,1.19999999999999);
#43=CIRCLE('',#1137,2.5);
#44=CIRCLE('',#1138,1.2);
#45=CIRCLE('',#1140,2.5);
#46=CIRCLE('',#1141,1.19999999999999);
#47=CIRCLE('',#1143,2.5);
#48=CIRCLE('',#1144,1.2);
#49=CIRCLE('',#1146,1.2);
#50=CIRCLE('',#1148,1.19999999999999);
#51=CIRCLE('',#1150,1.2);
#52=CIRCLE('',#1152,1.19999999999999);
#53=CIRCLE('',#1154,2.5);
#54=CIRCLE('',#1157,3.);
#55=CIRCLE('',#1158,3.);
#56=CIRCLE('',#1159,3.);
#57=CIRCLE('',#1160,3.00000000000001);
#58=CIRCLE('',#1161,1.40000000000001);
#59=CIRCLE('',#1162,1.4);
#60=CIRCLE('',#1163,2.5);
#61=CIRCLE('',#1164,2.5);
#62=CIRCLE('',#1165,1.4);
#63=CIRCLE('',#1166,1.4);
#64=CIRCLE('',#1167,2.5);
#65=CIRCLE('',#1177,3.00000000000001);
#66=CIRCLE('',#1178,3.);
#67=CIRCLE('',#1179,3.);
#68=CIRCLE('',#1180,3.);
#69=CIRCLE('',#1181,1.4);
#70=CIRCLE('',#1182,1.4);
#71=CIRCLE('',#1183,1.4);
#72=CIRCLE('',#1184,1.40000000000001);
#73=FACE_OUTER_BOUND('',#127,.T.);
#74=FACE_OUTER_BOUND('',#128,.T.);
#75=FACE_OUTER_BOUND('',#129,.T.);
#76=FACE_OUTER_BOUND('',#130,.T.);
#77=FACE_OUTER_BOUND('',#131,.T.);
#78=FACE_OUTER_BOUND('',#132,.T.);
#79=FACE_OUTER_BOUND('',#133,.T.);
#80=FACE_OUTER_BOUND('',#134,.T.);
#81=FACE_OUTER_BOUND('',#135,.T.);
#82=FACE_OUTER_BOUND('',#136,.T.);
#83=FACE_OUTER_BOUND('',#137,.T.);
#84=FACE_OUTER_BOUND('',#138,.T.);
#85=FACE_OUTER_BOUND('',#139,.T.);
#86=FACE_OUTER_BOUND('',#140,.T.);
#87=FACE_OUTER_BOUND('',#141,.T.);
#88=FACE_OUTER_BOUND('',#142,.T.);
#89=FACE_OUTER_BOUND('',#143,.T.);
#90=FACE_OUTER_BOUND('',#145,.T.);
#91=FACE_OUTER_BOUND('',#147,.T.);
#92=FACE_OUTER_BOUND('',#149,.T.);
#93=FACE_OUTER_BOUND('',#151,.T.);
#94=FACE_OUTER_BOUND('',#152,.T.);
#95=FACE_OUTER_BOUND('',#153,.T.);
#96=FACE_OUTER_BOUND('',#154,.T.);
#97=FACE_OUTER_BOUND('',#155,.T.);
#98=FACE_OUTER_BOUND('',#156,.T.);
#99=FACE_OUTER_BOUND('',#157,.T.);
#100=FACE_OUTER_BOUND('',#163,.T.);
#101=FACE_OUTER_BOUND('',#164,.T.);
#102=FACE_OUTER_BOUND('',#165,.T.);
#103=FACE_OUTER_BOUND('',#166,.T.);
#104=FACE_OUTER_BOUND('',#167,.T.);
#105=FACE_OUTER_BOUND('',#168,.T.);
#106=FACE_OUTER_BOUND('',#169,.T.);
#107=FACE_OUTER_BOUND('',#170,.T.);
#108=FACE_OUTER_BOUND('',#171,.T.);
#109=FACE_OUTER_BOUND('',#173,.T.);
#110=FACE_OUTER_BOUND('',#174,.T.);
#111=FACE_OUTER_BOUND('',#175,.T.);
#112=FACE_OUTER_BOUND('',#176,.T.);
#113=FACE_OUTER_BOUND('',#177,.T.);
#114=FACE_OUTER_BOUND('',#178,.T.);
#115=FACE_OUTER_BOUND('',#179,.T.);
#116=FACE_OUTER_BOUND('',#180,.T.);
#117=FACE_OUTER_BOUND('',#181,.T.);
#118=FACE_OUTER_BOUND('',#182,.T.);
#119=FACE_OUTER_BOUND('',#183,.T.);
#120=FACE_OUTER_BOUND('',#184,.T.);
#121=FACE_OUTER_BOUND('',#185,.T.);
#122=FACE_OUTER_BOUND('',#186,.T.);
#123=FACE_OUTER_BOUND('',#187,.T.);
#124=FACE_OUTER_BOUND('',#188,.T.);
#125=FACE_OUTER_BOUND('',#189,.T.);
#126=FACE_OUTER_BOUND('',#190,.T.);
#127=EDGE_LOOP('',(#699,#700,#701,#702));
#128=EDGE_LOOP('',(#703,#704,#705,#706));
#129=EDGE_LOOP('',(#707,#708,#709,#710));
#130=EDGE_LOOP('',(#711,#712,#713,#714));
#131=EDGE_LOOP('',(#715,#716,#717,#718));
#132=EDGE_LOOP('',(#719,#720,#721,#722));
#133=EDGE_LOOP('',(#723,#724,#725,#726));
#134=EDGE_LOOP('',(#727,#728,#729,#730));
#135=EDGE_LOOP('',(#731,#732,#733,#734));
#136=EDGE_LOOP('',(#735,#736,#737,#738));
#137=EDGE_LOOP('',(#739,#740,#741,#742));
#138=EDGE_LOOP('',(#743,#744,#745,#746));
#139=EDGE_LOOP('',(#747,#748,#749,#750,#751,#752,#753,#754));
#140=EDGE_LOOP('',(#755,#756,#757,#758,#759,#760,#761,#762));
#141=EDGE_LOOP('',(#763,#764,#765,#766,#767,#768,#769,#770));
#142=EDGE_LOOP('',(#771,#772,#773,#774,#775,#776,#777,#778));
#143=EDGE_LOOP('',(#779,#780,#781,#782));
#144=EDGE_LOOP('',(#783));
#145=EDGE_LOOP('',(#784,#785,#786,#787));
#146=EDGE_LOOP('',(#788));
#147=EDGE_LOOP('',(#789,#790,#791,#792));
#148=EDGE_LOOP('',(#793));
#149=EDGE_LOOP('',(#794,#795,#796,#797));
#150=EDGE_LOOP('',(#798));
#151=EDGE_LOOP('',(#799,#800,#801,#802));
#152=EDGE_LOOP('',(#803,#804,#805,#806));
#153=EDGE_LOOP('',(#807,#808,#809,#810));
#154=EDGE_LOOP('',(#811,#812,#813,#814));
#155=EDGE_LOOP('',(#815,#816,#817,#818));
#156=EDGE_LOOP('',(#819,#820,#821,#822,#823,#824,#825,#826));
#157=EDGE_LOOP('',(#827,#828,#829,#830,#831,#832,#833,#834));
#158=EDGE_LOOP('',(#835,#836,#837,#838,#839,#840,#841,#842,#843,#844,#845,
#846,#847,#848,#849,#850,#851,#852,#853,#854,#855,#856,#857,#858));
#159=EDGE_LOOP('',(#859));
#160=EDGE_LOOP('',(#860));
#161=EDGE_LOOP('',(#861));
#162=EDGE_LOOP('',(#862));
#163=EDGE_LOOP('',(#863,#864,#865,#866));
#164=EDGE_LOOP('',(#867,#868,#869,#870,#871,#872,#873,#874));
#165=EDGE_LOOP('',(#875,#876,#877,#878));
#166=EDGE_LOOP('',(#879,#880,#881,#882));
#167=EDGE_LOOP('',(#883,#884,#885,#886));
#168=EDGE_LOOP('',(#887,#888,#889,#890));
#169=EDGE_LOOP('',(#891,#892,#893,#894,#895,#896,#897,#898));
#170=EDGE_LOOP('',(#899,#900,#901,#902));
#171=EDGE_LOOP('',(#903,#904,#905,#906,#907,#908,#909,#910));
#172=EDGE_LOOP('',(#911,#912,#913,#914,#915,#916,#917,#918,#919,#920,#921,
#922,#923,#924,#925,#926,#927,#928,#929,#930,#931,#932,#933,#934));
#173=EDGE_LOOP('',(#935,#936,#937,#938));
#174=EDGE_LOOP('',(#939,#940,#941,#942,#943,#944,#945,#946));
#175=EDGE_LOOP('',(#947,#948,#949,#950));
#176=EDGE_LOOP('',(#951,#952,#953,#954));
#177=EDGE_LOOP('',(#955,#956,#957,#958));
#178=EDGE_LOOP('',(#959,#960,#961,#962));
#179=EDGE_LOOP('',(#963,#964,#965,#966));
#180=EDGE_LOOP('',(#967,#968,#969,#970));
#181=EDGE_LOOP('',(#971,#972,#973,#974));
#182=EDGE_LOOP('',(#975,#976,#977,#978));
#183=EDGE_LOOP('',(#979,#980,#981,#982));
#184=EDGE_LOOP('',(#983,#984,#985,#986));
#185=EDGE_LOOP('',(#987,#988,#989,#990));
#186=EDGE_LOOP('',(#991,#992,#993,#994));
#187=EDGE_LOOP('',(#995,#996,#997,#998));
#188=EDGE_LOOP('',(#999,#1000,#1001,#1002));
#189=EDGE_LOOP('',(#1003,#1004,#1005,#1006));
#190=EDGE_LOOP('',(#1007,#1008,#1009,#1010));
#191=LINE('',#1505,#315);
#192=LINE('',#1507,#316);
#193=LINE('',#1509,#317);
#194=LINE('',#1510,#318);
#195=LINE('',#1513,#319);
#196=LINE('',#1515,#320);
#197=LINE('',#1516,#321);
#198=LINE('',#1519,#322);
#199=LINE('',#1521,#323);
#200=LINE('',#1522,#324);
#201=LINE('',#1526,#325);
#202=LINE('',#1528,#326);
#203=LINE('',#1530,#327);
#204=LINE('',#1531,#328);
#205=LINE('',#1535,#329);
#206=LINE('',#1537,#330);
#207=LINE('',#1539,#331);
#208=LINE('',#1540,#332);
#209=LINE('',#1542,#333);
#210=LINE('',#1543,#334);
#211=LINE('',#1547,#335);
#212=LINE('',#1549,#336);
#213=LINE('',#1551,#337);
#214=LINE('',#1552,#338);
#215=LINE('',#1556,#339);
#216=LINE('',#1558,#340);
#217=LINE('',#1560,#341);
#218=LINE('',#1561,#342);
#219=LINE('',#1563,#343);
#220=LINE('',#1564,#344);
#221=LINE('',#1568,#345);
#222=LINE('',#1570,#346);
#223=LINE('',#1572,#347);
#224=LINE('',#1573,#348);
#225=LINE('',#1576,#349);
#226=LINE('',#1578,#350);
#227=LINE('',#1579,#351);
#228=LINE('',#1582,#352);
#229=LINE('',#1584,#353);
#230=LINE('',#1585,#354);
#231=LINE('',#1588,#355);
#232=LINE('',#1590,#356);
#233=LINE('',#1592,#357);
#234=LINE('',#1594,#358);
#235=LINE('',#1595,#359);
#236=LINE('',#1598,#360);
#237=LINE('',#1600,#361);
#238=LINE('',#1602,#362);
#239=LINE('',#1604,#363);
#240=LINE('',#1605,#364);
#241=LINE('',#1608,#365);
#242=LINE('',#1610,#366);
#243=LINE('',#1612,#367);
#244=LINE('',#1614,#368);
#245=LINE('',#1615,#369);
#246=LINE('',#1618,#370);
#247=LINE('',#1620,#371);
#248=LINE('',#1622,#372);
#249=LINE('',#1624,#373);
#250=LINE('',#1625,#374);
#251=LINE('',#1628,#375);
#252=LINE('',#1635,#376);
#253=LINE('',#1640,#377);
#254=LINE('',#1647,#378);
#255=LINE('',#1653,#379);
#256=LINE('',#1657,#380);
#257=LINE('',#1661,#381);
#258=LINE('',#1665,#382);
#259=LINE('',#1669,#383);
#260=LINE('',#1672,#384);
#261=LINE('',#1674,#385);
#262=LINE('',#1675,#386);
#263=LINE('',#1679,#387);
#264=LINE('',#1683,#388);
#265=LINE('',#1687,#389);
#266=LINE('',#1691,#390);
#267=LINE('',#1694,#391);
#268=LINE('',#1698,#392);
#269=LINE('',#1702,#393);
#270=LINE('',#1704,#394);
#271=LINE('',#1707,#395);
#272=LINE('',#1709,#396);
#273=LINE('',#1712,#397);
#274=LINE('',#1716,#398);
#275=LINE('',#1719,#399);
#276=LINE('',#1723,#400);
#277=LINE('',#1724,#401);
#278=LINE('',#1727,#402);
#279=LINE('',#1728,#403);
#280=LINE('',#1730,#404);
#281=LINE('',#1732,#405);
#282=LINE('',#1733,#406);
#283=LINE('',#1738,#407);
#284=LINE('',#1739,#408);
#285=LINE('',#1740,#409);
#286=LINE('',#1743,#410);
#287=LINE('',#1744,#411);
#288=LINE('',#1746,#412);
#289=LINE('',#1749,#413);
#290=LINE('',#1750,#414);
#291=LINE('',#1752,#415);
#292=LINE('',#1756,#416);
#293=LINE('',#1760,#417);
#294=LINE('',#1765,#418);
#295=LINE('',#1768,#419);
#296=LINE('',#1772,#420);
#297=LINE('',#1774,#421);
#298=LINE('',#1776,#422);
#299=LINE('',#1778,#423);
#300=LINE('',#1782,#424);
#301=LINE('',#1785,#425);
#302=LINE('',#1786,#426);
#303=LINE('',#1788,#427);
#304=LINE('',#1789,#428);
#305=LINE('',#1793,#429);
#306=LINE('',#1794,#430);
#307=LINE('',#1796,#431);
#308=LINE('',#1799,#432);
#309=LINE('',#1801,#433);
#310=LINE('',#1803,#434);
#311=LINE('',#1807,#435);
#312=LINE('',#1809,#436);
#313=LINE('',#1812,#437);
#314=LINE('',#1814,#438);
#315=VECTOR('',#1207,10.);
#316=VECTOR('',#1208,10.);
#317=VECTOR('',#1209,10.);
#318=VECTOR('',#1210,10.);
#319=VECTOR('',#1213,10.);
#320=VECTOR('',#1214,10.);
#321=VECTOR('',#1215,10.);
#322=VECTOR('',#1218,10.);
#323=VECTOR('',#1219,10.);
#324=VECTOR('',#1220,10.);
#325=VECTOR('',#1223,10.);
#326=VECTOR('',#1224,10.);
#327=VECTOR('',#1225,10.);
#328=VECTOR('',#1226,10.);
#329=VECTOR('',#1229,10.);
#330=VECTOR('',#1230,10.);
#331=VECTOR('',#1231,10.);
#332=VECTOR('',#1232,10.);
#333=VECTOR('',#1235,10.);
#334=VECTOR('',#1236,10.);
#335=VECTOR('',#1239,10.);
#336=VECTOR('',#1240,10.);
#337=VECTOR('',#1241,10.);
#338=VECTOR('',#1242,10.);
#339=VECTOR('',#1245,10.);
#340=VECTOR('',#1246,10.);
#341=VECTOR('',#1247,10.);
#342=VECTOR('',#1248,10.);
#343=VECTOR('',#1251,10.);
#344=VECTOR('',#1252,10.);
#345=VECTOR('',#1255,10.);
#346=VECTOR('',#1256,10.);
#347=VECTOR('',#1257,10.);
#348=VECTOR('',#1258,10.);
#349=VECTOR('',#1261,10.);
#350=VECTOR('',#1262,10.);
#351=VECTOR('',#1263,10.);
#352=VECTOR('',#1266,10.);
#353=VECTOR('',#1267,10.);
#354=VECTOR('',#1268,10.);
#355=VECTOR('',#1271,10.);
#356=VECTOR('',#1272,10.);
#357=VECTOR('',#1273,10.);
#358=VECTOR('',#1274,10.);
#359=VECTOR('',#1275,10.);
#360=VECTOR('',#1278,10.);
#361=VECTOR('',#1279,10.);
#362=VECTOR('',#1280,10.);
#363=VECTOR('',#1281,10.);
#364=VECTOR('',#1282,10.);
#365=VECTOR('',#1285,10.);
#366=VECTOR('',#1286,10.);
#367=VECTOR('',#1287,10.);
#368=VECTOR('',#1288,10.);
#369=VECTOR('',#1289,10.);
#370=VECTOR('',#1292,10.);
#371=VECTOR('',#1293,10.);
#372=VECTOR('',#1294,10.);
#373=VECTOR('',#1295,10.);
#374=VECTOR('',#1296,10.);
#375=VECTOR('',#1299,10.);
#376=VECTOR('',#1308,10.);
#377=VECTOR('',#1313,10.);
#378=VECTOR('',#1322,10.);
#379=VECTOR('',#1329,1.2);
#380=VECTOR('',#1334,1.19999999999999);
#381=VECTOR('',#1339,1.2);
#382=VECTOR('',#1344,1.19999999999999);
#383=VECTOR('',#1349,10.);
#384=VECTOR('',#1352,10.);
#385=VECTOR('',#1353,10.);
#386=VECTOR('',#1354,10.);
#387=VECTOR('',#1357,10.);
#388=VECTOR('',#1360,10.);
#389=VECTOR('',#1363,10.);
#390=VECTOR('',#1366,10.);
#391=VECTOR('',#1369,10.);
#392=VECTOR('',#1372,10.);
#393=VECTOR('',#1375,10.);
#394=VECTOR('',#1376,10.);
#395=VECTOR('',#1379,10.);
#396=VECTOR('',#1380,10.);
#397=VECTOR('',#1383,10.);
#398=VECTOR('',#1386,10.);
#399=VECTOR('',#1389,10.);
#400=VECTOR('',#1392,10.);
#401=VECTOR('',#1393,10.);
#402=VECTOR('',#1396,10.);
#403=VECTOR('',#1397,10.);
#404=VECTOR('',#1400,10.);
#405=VECTOR('',#1401,10.);
#406=VECTOR('',#1402,10.);
#407=VECTOR('',#1407,10.);
#408=VECTOR('',#1408,10.);
#409=VECTOR('',#1409,10.);
#410=VECTOR('',#1412,10.);
#411=VECTOR('',#1413,10.);
#412=VECTOR('',#1416,10.);
#413=VECTOR('',#1419,10.);
#414=VECTOR('',#1420,10.);
#415=VECTOR('',#1423,10.);
#416=VECTOR('',#1426,10.);
#417=VECTOR('',#1429,10.);
#418=VECTOR('',#1434,10.);
#419=VECTOR('',#1437,10.);
#420=VECTOR('',#1440,10.);
#421=VECTOR('',#1443,10.);
#422=VECTOR('',#1444,10.);
#423=VECTOR('',#1445,10.);
#424=VECTOR('',#1448,10.);
#425=VECTOR('',#1453,10.);
#426=VECTOR('',#1454,10.);
#427=VECTOR('',#1457,10.);
#428=VECTOR('',#1458,10.);
#429=VECTOR('',#1465,10.);
#430=VECTOR('',#1466,10.);
#431=VECTOR('',#1469,10.);
#432=VECTOR('',#1474,10.);
#433=VECTOR('',#1477,10.);
#434=VECTOR('',#1480,10.);
#435=VECTOR('',#1487,10.);
#436=VECTOR('',#1490,10.);
#437=VECTOR('',#1495,10.);
#438=VECTOR('',#1498,10.);
#439=VERTEX_POINT('',#1503);
#440=VERTEX_POINT('',#1504);
#441=VERTEX_POINT('',#1506);
#442=VERTEX_POINT('',#1508);
#443=VERTEX_POINT('',#1512);
#444=VERTEX_POINT('',#1514);
#445=VERTEX_POINT('',#1518);
#446=VERTEX_POINT('',#1520);
#447=VERTEX_POINT('',#1524);
#448=VERTEX_POINT('',#1525);
#449=VERTEX_POINT('',#1527);
#450=VERTEX_POINT('',#1529);
#451=VERTEX_POINT('',#1533);
#452=VERTEX_POINT('',#1534);
#453=VERTEX_POINT('',#1536);
#454=VERTEX_POINT('',#1538);
#455=VERTEX_POINT('',#1545);
#456=VERTEX_POINT('',#1546);
#457=VERTEX_POINT('',#1548);
#458=VERTEX_POINT('',#1550);
#459=VERTEX_POINT('',#1554);
#460=VERTEX_POINT('',#1555);
#461=VERTEX_POINT('',#1557);
#462=VERTEX_POINT('',#1559);
#463=VERTEX_POINT('',#1566);
#464=VERTEX_POINT('',#1567);
#465=VERTEX_POINT('',#1569);
#466=VERTEX_POINT('',#1571);
#467=VERTEX_POINT('',#1575);
#468=VERTEX_POINT('',#1577);
#469=VERTEX_POINT('',#1581);
#470=VERTEX_POINT('',#1583);
#471=VERTEX_POINT('',#1587);
#472=VERTEX_POINT('',#1589);
#473=VERTEX_POINT('',#1591);
#474=VERTEX_POINT('',#1593);
#475=VERTEX_POINT('',#1597);
#476=VERTEX_POINT('',#1599);
#477=VERTEX_POINT('',#1601);
#478=VERTEX_POINT('',#1603);
#479=VERTEX_POINT('',#1607);
#480=VERTEX_POINT('',#1609);
#481=VERTEX_POINT('',#1611);
#482=VERTEX_POINT('',#1613);
#483=VERTEX_POINT('',#1617);
#484=VERTEX_POINT('',#1619);
#485=VERTEX_POINT('',#1621);
#486=VERTEX_POINT('',#1623);
#487=VERTEX_POINT('',#1627);
#488=VERTEX_POINT('',#1630);
#489=VERTEX_POINT('',#1633);
#490=VERTEX_POINT('',#1636);
#491=VERTEX_POINT('',#1639);
#492=VERTEX_POINT('',#1642);
#493=VERTEX_POINT('',#1645);
#494=VERTEX_POINT('',#1648);
#495=VERTEX_POINT('',#1651);
#496=VERTEX_POINT('',#1655);
#497=VERTEX_POINT('',#1659);
#498=VERTEX_POINT('',#1663);
#499=VERTEX_POINT('',#1667);
#500=VERTEX_POINT('',#1671);
#501=VERTEX_POINT('',#1673);
#502=VERTEX_POINT('',#1677);
#503=VERTEX_POINT('',#1678);
#504=VERTEX_POINT('',#1680);
#505=VERTEX_POINT('',#1682);
#506=VERTEX_POINT('',#1684);
#507=VERTEX_POINT('',#1686);
#508=VERTEX_POINT('',#1688);
#509=VERTEX_POINT('',#1690);
#510=VERTEX_POINT('',#1693);
#511=VERTEX_POINT('',#1695);
#512=VERTEX_POINT('',#1697);
#513=VERTEX_POINT('',#1699);
#514=VERTEX_POINT('',#1701);
#515=VERTEX_POINT('',#1703);
#516=VERTEX_POINT('',#1706);
#517=VERTEX_POINT('',#1708);
#518=VERTEX_POINT('',#1711);
#519=VERTEX_POINT('',#1713);
#520=VERTEX_POINT('',#1715);
#521=VERTEX_POINT('',#1717);
#522=VERTEX_POINT('',#1720);
#523=VERTEX_POINT('',#1722);
#524=VERTEX_POINT('',#1726);
#525=VERTEX_POINT('',#1731);
#526=VERTEX_POINT('',#1736);
#527=VERTEX_POINT('',#1737);
#528=VERTEX_POINT('',#1742);
#529=VERTEX_POINT('',#1748);
#530=VERTEX_POINT('',#1754);
#531=VERTEX_POINT('',#1755);
#532=VERTEX_POINT('',#1757);
#533=VERTEX_POINT('',#1759);
#534=VERTEX_POINT('',#1762);
#535=VERTEX_POINT('',#1764);
#536=VERTEX_POINT('',#1767);
#537=VERTEX_POINT('',#1769);
#538=VERTEX_POINT('',#1771);
#539=VERTEX_POINT('',#1775);
#540=VERTEX_POINT('',#1777);
#541=VERTEX_POINT('',#1779);
#542=VERTEX_POINT('',#1781);
#543=EDGE_CURVE('',#439,#440,#191,.T.);
#544=EDGE_CURVE('',#441,#439,#192,.T.);
#545=EDGE_CURVE('',#442,#441,#193,.T.);
#546=EDGE_CURVE('',#440,#442,#194,.T.);
#547=EDGE_CURVE('',#440,#443,#195,.T.);
#548=EDGE_CURVE('',#444,#442,#196,.T.);
#549=EDGE_CURVE('',#443,#444,#197,.T.);
#550=EDGE_CURVE('',#445,#439,#198,.T.);
#551=EDGE_CURVE('',#446,#445,#199,.T.);
#552=EDGE_CURVE('',#441,#446,#200,.T.);
#553=EDGE_CURVE('',#447,#448,#201,.T.);
#554=EDGE_CURVE('',#447,#449,#202,.T.);
#555=EDGE_CURVE('',#450,#449,#203,.T.);
#556=EDGE_CURVE('',#448,#450,#204,.T.);
#557=EDGE_CURVE('',#451,#452,#205,.T.);
#558=EDGE_CURVE('',#453,#451,#206,.T.);
#559=EDGE_CURVE('',#454,#453,#207,.T.);
#560=EDGE_CURVE('',#454,#452,#208,.T.);
#561=EDGE_CURVE('',#452,#447,#209,.T.);
#562=EDGE_CURVE('',#449,#454,#210,.T.);
#563=EDGE_CURVE('',#455,#456,#211,.T.);
#564=EDGE_CURVE('',#455,#457,#212,.T.);
#565=EDGE_CURVE('',#458,#457,#213,.T.);
#566=EDGE_CURVE('',#456,#458,#214,.T.);
#567=EDGE_CURVE('',#459,#460,#215,.T.);
#568=EDGE_CURVE('',#461,#459,#216,.T.);
#569=EDGE_CURVE('',#462,#461,#217,.T.);
#570=EDGE_CURVE('',#462,#460,#218,.T.);
#571=EDGE_CURVE('',#460,#455,#219,.T.);
#572=EDGE_CURVE('',#457,#462,#220,.T.);
#573=EDGE_CURVE('',#463,#464,#221,.T.);
#574=EDGE_CURVE('',#465,#463,#222,.T.);
#575=EDGE_CURVE('',#466,#465,#223,.T.);
#576=EDGE_CURVE('',#464,#466,#224,.T.);
#577=EDGE_CURVE('',#464,#467,#225,.T.);
#578=EDGE_CURVE('',#468,#466,#226,.T.);
#579=EDGE_CURVE('',#467,#468,#227,.T.);
#580=EDGE_CURVE('',#469,#463,#228,.T.);
#581=EDGE_CURVE('',#470,#469,#229,.T.);
#582=EDGE_CURVE('',#465,#470,#230,.T.);
#583=EDGE_CURVE('',#471,#443,#231,.T.);
#584=EDGE_CURVE('',#472,#471,#232,.T.);
#585=EDGE_CURVE('',#472,#473,#233,.T.);
#586=EDGE_CURVE('',#474,#473,#234,.T.);
#587=EDGE_CURVE('',#445,#474,#235,.T.);
#588=EDGE_CURVE('',#475,#453,#236,.T.);
#589=EDGE_CURVE('',#476,#475,#237,.T.);
#590=EDGE_CURVE('',#476,#477,#238,.T.);
#591=EDGE_CURVE('',#477,#478,#239,.T.);
#592=EDGE_CURVE('',#450,#478,#240,.T.);
#593=EDGE_CURVE('',#479,#461,#241,.T.);
#594=EDGE_CURVE('',#480,#479,#242,.T.);
#595=EDGE_CURVE('',#480,#481,#243,.T.);
#596=EDGE_CURVE('',#481,#482,#244,.T.);
#597=EDGE_CURVE('',#458,#482,#245,.T.);
#598=EDGE_CURVE('',#483,#467,#246,.T.);
#599=EDGE_CURVE('',#484,#483,#247,.T.);
#600=EDGE_CURVE('',#484,#485,#248,.T.);
#601=EDGE_CURVE('',#486,#485,#249,.T.);
#602=EDGE_CURVE('',#469,#486,#250,.T.);
#603=EDGE_CURVE('',#468,#487,#251,.T.);
#604=EDGE_CURVE('',#487,#483,#41,.T.);
#605=EDGE_CURVE('',#488,#488,#42,.T.);
#606=EDGE_CURVE('',#482,#489,#43,.T.);
#607=EDGE_CURVE('',#489,#456,#252,.T.);
#608=EDGE_CURVE('',#490,#490,#44,.T.);
#609=EDGE_CURVE('',#444,#491,#253,.T.);
#610=EDGE_CURVE('',#491,#471,#45,.T.);
#611=EDGE_CURVE('',#492,#492,#46,.T.);
#612=EDGE_CURVE('',#478,#493,#47,.T.);
#613=EDGE_CURVE('',#493,#448,#254,.T.);
#614=EDGE_CURVE('',#494,#494,#48,.T.);
#615=EDGE_CURVE('',#495,#495,#49,.T.);
#616=EDGE_CURVE('',#495,#494,#255,.T.);
#617=EDGE_CURVE('',#496,#496,#50,.T.);
#618=EDGE_CURVE('',#496,#492,#256,.T.);
#619=EDGE_CURVE('',#497,#497,#51,.T.);
#620=EDGE_CURVE('',#497,#490,#257,.T.);
#621=EDGE_CURVE('',#498,#498,#52,.T.);
#622=EDGE_CURVE('',#498,#488,#258,.T.);
#623=EDGE_CURVE('',#499,#484,#53,.T.);
#624=EDGE_CURVE('',#499,#487,#259,.T.);
#625=EDGE_CURVE('',#500,#470,#260,.T.);
#626=EDGE_CURVE('',#501,#500,#261,.T.);
#627=EDGE_CURVE('',#501,#499,#262,.T.);
#628=EDGE_CURVE('',#502,#503,#263,.T.);
#629=EDGE_CURVE('',#504,#502,#54,.T.);
#630=EDGE_CURVE('',#505,#504,#264,.T.);
#631=EDGE_CURVE('',#506,#505,#55,.T.);
#632=EDGE_CURVE('',#507,#506,#265,.T.);
#633=EDGE_CURVE('',#508,#507,#56,.T.);
#634=EDGE_CURVE('',#509,#508,#266,.T.);
#635=EDGE_CURVE('',#503,#509,#57,.T.);
#636=EDGE_CURVE('',#510,#501,#267,.T.);
#637=EDGE_CURVE('',#511,#510,#58,.T.);
#638=EDGE_CURVE('',#512,#511,#268,.T.);
#639=EDGE_CURVE('',#513,#512,#59,.T.);
#640=EDGE_CURVE('',#514,#513,#269,.T.);
#641=EDGE_CURVE('',#515,#514,#270,.T.);
#642=EDGE_CURVE('',#477,#515,#60,.T.);
#643=EDGE_CURVE('',#516,#476,#271,.T.);
#644=EDGE_CURVE('',#517,#516,#272,.T.);
#645=EDGE_CURVE('',#481,#517,#61,.T.);
#646=EDGE_CURVE('',#518,#480,#273,.T.);
#647=EDGE_CURVE('',#519,#518,#62,.T.);
#648=EDGE_CURVE('',#520,#519,#274,.T.);
#649=EDGE_CURVE('',#521,#520,#63,.T.);
#650=EDGE_CURVE('',#473,#521,#275,.T.);
#651=EDGE_CURVE('',#522,#472,#64,.T.);
#652=EDGE_CURVE('',#523,#522,#276,.T.);
#653=EDGE_CURVE('',#485,#523,#277,.T.);
#654=EDGE_CURVE('',#524,#500,#278,.T.);
#655=EDGE_CURVE('',#510,#524,#279,.T.);
#656=EDGE_CURVE('',#517,#489,#280,.T.);
#657=EDGE_CURVE('',#525,#516,#281,.T.);
#658=EDGE_CURVE('',#459,#525,#282,.T.);
#659=EDGE_CURVE('',#526,#527,#283,.T.);
#660=EDGE_CURVE('',#507,#526,#284,.T.);
#661=EDGE_CURVE('',#506,#527,#285,.T.);
#662=EDGE_CURVE('',#528,#479,#286,.T.);
#663=EDGE_CURVE('',#518,#528,#287,.T.);
#664=EDGE_CURVE('',#522,#491,#288,.T.);
#665=EDGE_CURVE('',#529,#446,#289,.T.);
#666=EDGE_CURVE('',#523,#529,#290,.T.);
#667=EDGE_CURVE('',#486,#529,#291,.T.);
#668=EDGE_CURVE('',#530,#531,#292,.T.);
#669=EDGE_CURVE('',#531,#532,#65,.T.);
#670=EDGE_CURVE('',#532,#533,#293,.T.);
#671=EDGE_CURVE('',#533,#526,#66,.T.);
#672=EDGE_CURVE('',#527,#534,#67,.T.);
#673=EDGE_CURVE('',#534,#535,#294,.T.);
#674=EDGE_CURVE('',#535,#530,#68,.T.);
#675=EDGE_CURVE('',#474,#536,#295,.T.);
#676=EDGE_CURVE('',#536,#537,#69,.T.);
#677=EDGE_CURVE('',#537,#538,#296,.T.);
#678=EDGE_CURVE('',#538,#528,#70,.T.);
#679=EDGE_CURVE('',#525,#475,#297,.T.);
#680=EDGE_CURVE('',#451,#539,#298,.T.);
#681=EDGE_CURVE('',#539,#540,#299,.T.);
#682=EDGE_CURVE('',#540,#541,#71,.T.);
#683=EDGE_CURVE('',#541,#542,#300,.T.);
#684=EDGE_CURVE('',#542,#524,#72,.T.);
#685=EDGE_CURVE('',#503,#531,#301,.T.);
#686=EDGE_CURVE('',#502,#530,#302,.T.);
#687=EDGE_CURVE('',#515,#493,#303,.T.);
#688=EDGE_CURVE('',#539,#514,#304,.T.);
#689=EDGE_CURVE('',#519,#538,#305,.T.);
#690=EDGE_CURVE('',#520,#537,#306,.T.);
#691=EDGE_CURVE('',#521,#536,#307,.T.);
#692=EDGE_CURVE('',#511,#542,#308,.T.);
#693=EDGE_CURVE('',#512,#541,#309,.T.);
#694=EDGE_CURVE('',#513,#540,#310,.T.);
#695=EDGE_CURVE('',#508,#533,#311,.T.);
#696=EDGE_CURVE('',#509,#532,#312,.T.);
#697=EDGE_CURVE('',#504,#535,#313,.T.);
#698=EDGE_CURVE('',#505,#534,#314,.T.);
#699=ORIENTED_EDGE('',*,*,#543,.F.);
#700=ORIENTED_EDGE('',*,*,#544,.F.);
#701=ORIENTED_EDGE('',*,*,#545,.F.);
#702=ORIENTED_EDGE('',*,*,#546,.F.);
#703=ORIENTED_EDGE('',*,*,#547,.F.);
#704=ORIENTED_EDGE('',*,*,#546,.T.);
#705=ORIENTED_EDGE('',*,*,#548,.F.);
#706=ORIENTED_EDGE('',*,*,#549,.F.);
#707=ORIENTED_EDGE('',*,*,#550,.F.);
#708=ORIENTED_EDGE('',*,*,#551,.F.);
#709=ORIENTED_EDGE('',*,*,#552,.F.);
#710=ORIENTED_EDGE('',*,*,#544,.T.);
#711=ORIENTED_EDGE('',*,*,#553,.F.);
#712=ORIENTED_EDGE('',*,*,#554,.T.);
#713=ORIENTED_EDGE('',*,*,#555,.F.);
#714=ORIENTED_EDGE('',*,*,#556,.F.);
#715=ORIENTED_EDGE('',*,*,#557,.F.);
#716=ORIENTED_EDGE('',*,*,#558,.F.);
#717=ORIENTED_EDGE('',*,*,#559,.F.);
#718=ORIENTED_EDGE('',*,*,#560,.T.);
#719=ORIENTED_EDGE('',*,*,#561,.F.);
#720=ORIENTED_EDGE('',*,*,#560,.F.);
#721=ORIENTED_EDGE('',*,*,#562,.F.);
#722=ORIENTED_EDGE('',*,*,#554,.F.);
#723=ORIENTED_EDGE('',*,*,#563,.F.);
#724=ORIENTED_EDGE('',*,*,#564,.T.);
#725=ORIENTED_EDGE('',*,*,#565,.F.);
#726=ORIENTED_EDGE('',*,*,#566,.F.);
#727=ORIENTED_EDGE('',*,*,#567,.F.);
#728=ORIENTED_EDGE('',*,*,#568,.F.);
#729=ORIENTED_EDGE('',*,*,#569,.F.);
#730=ORIENTED_EDGE('',*,*,#570,.T.);
#731=ORIENTED_EDGE('',*,*,#571,.F.);
#732=ORIENTED_EDGE('',*,*,#570,.F.);
#733=ORIENTED_EDGE('',*,*,#572,.F.);
#734=ORIENTED_EDGE('',*,*,#564,.F.);
#735=ORIENTED_EDGE('',*,*,#573,.F.);
#736=ORIENTED_EDGE('',*,*,#574,.F.);
#737=ORIENTED_EDGE('',*,*,#575,.F.);
#738=ORIENTED_EDGE('',*,*,#576,.F.);
#739=ORIENTED_EDGE('',*,*,#577,.F.);
#740=ORIENTED_EDGE('',*,*,#576,.T.);
#741=ORIENTED_EDGE('',*,*,#578,.F.);
#742=ORIENTED_EDGE('',*,*,#579,.F.);
#743=ORIENTED_EDGE('',*,*,#580,.F.);
#744=ORIENTED_EDGE('',*,*,#581,.F.);
#745=ORIENTED_EDGE('',*,*,#582,.F.);
#746=ORIENTED_EDGE('',*,*,#574,.T.);
#747=ORIENTED_EDGE('',*,*,#550,.T.);
#748=ORIENTED_EDGE('',*,*,#543,.T.);
#749=ORIENTED_EDGE('',*,*,#547,.T.);
#750=ORIENTED_EDGE('',*,*,#583,.F.);
#751=ORIENTED_EDGE('',*,*,#584,.F.);
#752=ORIENTED_EDGE('',*,*,#585,.T.);
#753=ORIENTED_EDGE('',*,*,#586,.F.);
#754=ORIENTED_EDGE('',*,*,#587,.F.);
#755=ORIENTED_EDGE('',*,*,#555,.T.);
#756=ORIENTED_EDGE('',*,*,#562,.T.);
#757=ORIENTED_EDGE('',*,*,#559,.T.);
#758=ORIENTED_EDGE('',*,*,#588,.F.);
#759=ORIENTED_EDGE('',*,*,#589,.F.);
#760=ORIENTED_EDGE('',*,*,#590,.T.);
#761=ORIENTED_EDGE('',*,*,#591,.T.);
#762=ORIENTED_EDGE('',*,*,#592,.F.);
#763=ORIENTED_EDGE('',*,*,#565,.T.);
#764=ORIENTED_EDGE('',*,*,#572,.T.);
#765=ORIENTED_EDGE('',*,*,#569,.T.);
#766=ORIENTED_EDGE('',*,*,#593,.F.);
#767=ORIENTED_EDGE('',*,*,#594,.F.);
#768=ORIENTED_EDGE('',*,*,#595,.T.);
#769=ORIENTED_EDGE('',*,*,#596,.T.);
#770=ORIENTED_EDGE('',*,*,#597,.F.);
#771=ORIENTED_EDGE('',*,*,#580,.T.);
#772=ORIENTED_EDGE('',*,*,#573,.T.);
#773=ORIENTED_EDGE('',*,*,#577,.T.);
#774=ORIENTED_EDGE('',*,*,#598,.F.);
#775=ORIENTED_EDGE('',*,*,#599,.F.);
#776=ORIENTED_EDGE('',*,*,#600,.T.);
#777=ORIENTED_EDGE('',*,*,#601,.F.);
#778=ORIENTED_EDGE('',*,*,#602,.F.);
#779=ORIENTED_EDGE('',*,*,#579,.T.);
#780=ORIENTED_EDGE('',*,*,#603,.T.);
#781=ORIENTED_EDGE('',*,*,#604,.T.);
#782=ORIENTED_EDGE('',*,*,#598,.T.);
#783=ORIENTED_EDGE('',*,*,#605,.T.);
#784=ORIENTED_EDGE('',*,*,#566,.T.);
#785=ORIENTED_EDGE('',*,*,#597,.T.);
#786=ORIENTED_EDGE('',*,*,#606,.T.);
#787=ORIENTED_EDGE('',*,*,#607,.T.);
#788=ORIENTED_EDGE('',*,*,#608,.T.);
#789=ORIENTED_EDGE('',*,*,#549,.T.);
#790=ORIENTED_EDGE('',*,*,#609,.T.);
#791=ORIENTED_EDGE('',*,*,#610,.T.);
#792=ORIENTED_EDGE('',*,*,#583,.T.);
#793=ORIENTED_EDGE('',*,*,#611,.T.);
#794=ORIENTED_EDGE('',*,*,#556,.T.);
#795=ORIENTED_EDGE('',*,*,#592,.T.);
#796=ORIENTED_EDGE('',*,*,#612,.T.);
#797=ORIENTED_EDGE('',*,*,#613,.T.);
#798=ORIENTED_EDGE('',*,*,#614,.T.);
#799=ORIENTED_EDGE('',*,*,#615,.F.);
#800=ORIENTED_EDGE('',*,*,#616,.T.);
#801=ORIENTED_EDGE('',*,*,#614,.F.);
#802=ORIENTED_EDGE('',*,*,#616,.F.);
#803=ORIENTED_EDGE('',*,*,#617,.F.);
#804=ORIENTED_EDGE('',*,*,#618,.T.);
#805=ORIENTED_EDGE('',*,*,#611,.F.);
#806=ORIENTED_EDGE('',*,*,#618,.F.);
#807=ORIENTED_EDGE('',*,*,#619,.F.);
#808=ORIENTED_EDGE('',*,*,#620,.T.);
#809=ORIENTED_EDGE('',*,*,#608,.F.);
#810=ORIENTED_EDGE('',*,*,#620,.F.);
#811=ORIENTED_EDGE('',*,*,#621,.F.);
#812=ORIENTED_EDGE('',*,*,#622,.T.);
#813=ORIENTED_EDGE('',*,*,#605,.F.);
#814=ORIENTED_EDGE('',*,*,#622,.F.);
#815=ORIENTED_EDGE('',*,*,#623,.T.);
#816=ORIENTED_EDGE('',*,*,#599,.T.);
#817=ORIENTED_EDGE('',*,*,#604,.F.);
#818=ORIENTED_EDGE('',*,*,#624,.F.);
#819=ORIENTED_EDGE('',*,*,#582,.T.);
#820=ORIENTED_EDGE('',*,*,#625,.F.);
#821=ORIENTED_EDGE('',*,*,#626,.F.);
#822=ORIENTED_EDGE('',*,*,#627,.T.);
#823=ORIENTED_EDGE('',*,*,#624,.T.);
#824=ORIENTED_EDGE('',*,*,#603,.F.);
#825=ORIENTED_EDGE('',*,*,#578,.T.);
#826=ORIENTED_EDGE('',*,*,#575,.T.);
#827=ORIENTED_EDGE('',*,*,#628,.F.);
#828=ORIENTED_EDGE('',*,*,#629,.F.);
#829=ORIENTED_EDGE('',*,*,#630,.F.);
#830=ORIENTED_EDGE('',*,*,#631,.F.);
#831=ORIENTED_EDGE('',*,*,#632,.F.);
#832=ORIENTED_EDGE('',*,*,#633,.F.);
#833=ORIENTED_EDGE('',*,*,#634,.F.);
#834=ORIENTED_EDGE('',*,*,#635,.F.);
#835=ORIENTED_EDGE('',*,*,#636,.F.);
#836=ORIENTED_EDGE('',*,*,#637,.F.);
#837=ORIENTED_EDGE('',*,*,#638,.F.);
#838=ORIENTED_EDGE('',*,*,#639,.F.);
#839=ORIENTED_EDGE('',*,*,#640,.F.);
#840=ORIENTED_EDGE('',*,*,#641,.F.);
#841=ORIENTED_EDGE('',*,*,#642,.F.);
#842=ORIENTED_EDGE('',*,*,#590,.F.);
#843=ORIENTED_EDGE('',*,*,#643,.F.);
#844=ORIENTED_EDGE('',*,*,#644,.F.);
#845=ORIENTED_EDGE('',*,*,#645,.F.);
#846=ORIENTED_EDGE('',*,*,#595,.F.);
#847=ORIENTED_EDGE('',*,*,#646,.F.);
#848=ORIENTED_EDGE('',*,*,#647,.F.);
#849=ORIENTED_EDGE('',*,*,#648,.F.);
#850=ORIENTED_EDGE('',*,*,#649,.F.);
#851=ORIENTED_EDGE('',*,*,#650,.F.);
#852=ORIENTED_EDGE('',*,*,#585,.F.);
#853=ORIENTED_EDGE('',*,*,#651,.F.);
#854=ORIENTED_EDGE('',*,*,#652,.F.);
#855=ORIENTED_EDGE('',*,*,#653,.F.);
#856=ORIENTED_EDGE('',*,*,#600,.F.);
#857=ORIENTED_EDGE('',*,*,#623,.F.);
#858=ORIENTED_EDGE('',*,*,#627,.F.);
#859=ORIENTED_EDGE('',*,*,#621,.T.);
#860=ORIENTED_EDGE('',*,*,#619,.T.);
#861=ORIENTED_EDGE('',*,*,#617,.T.);
#862=ORIENTED_EDGE('',*,*,#615,.T.);
#863=ORIENTED_EDGE('',*,*,#626,.T.);
#864=ORIENTED_EDGE('',*,*,#654,.F.);
#865=ORIENTED_EDGE('',*,*,#655,.F.);
#866=ORIENTED_EDGE('',*,*,#636,.T.);
#867=ORIENTED_EDGE('',*,*,#563,.T.);
#868=ORIENTED_EDGE('',*,*,#607,.F.);
#869=ORIENTED_EDGE('',*,*,#656,.F.);
#870=ORIENTED_EDGE('',*,*,#644,.T.);
#871=ORIENTED_EDGE('',*,*,#657,.F.);
#872=ORIENTED_EDGE('',*,*,#658,.F.);
#873=ORIENTED_EDGE('',*,*,#567,.T.);
#874=ORIENTED_EDGE('',*,*,#571,.T.);
#875=ORIENTED_EDGE('',*,*,#645,.T.);
#876=ORIENTED_EDGE('',*,*,#656,.T.);
#877=ORIENTED_EDGE('',*,*,#606,.F.);
#878=ORIENTED_EDGE('',*,*,#596,.F.);
#879=ORIENTED_EDGE('',*,*,#659,.F.);
#880=ORIENTED_EDGE('',*,*,#660,.F.);
#881=ORIENTED_EDGE('',*,*,#632,.T.);
#882=ORIENTED_EDGE('',*,*,#661,.T.);
#883=ORIENTED_EDGE('',*,*,#594,.T.);
#884=ORIENTED_EDGE('',*,*,#662,.F.);
#885=ORIENTED_EDGE('',*,*,#663,.F.);
#886=ORIENTED_EDGE('',*,*,#646,.T.);
#887=ORIENTED_EDGE('',*,*,#651,.T.);
#888=ORIENTED_EDGE('',*,*,#584,.T.);
#889=ORIENTED_EDGE('',*,*,#610,.F.);
#890=ORIENTED_EDGE('',*,*,#664,.F.);
#891=ORIENTED_EDGE('',*,*,#552,.T.);
#892=ORIENTED_EDGE('',*,*,#665,.F.);
#893=ORIENTED_EDGE('',*,*,#666,.F.);
#894=ORIENTED_EDGE('',*,*,#652,.T.);
#895=ORIENTED_EDGE('',*,*,#664,.T.);
#896=ORIENTED_EDGE('',*,*,#609,.F.);
#897=ORIENTED_EDGE('',*,*,#548,.T.);
#898=ORIENTED_EDGE('',*,*,#545,.T.);
#899=ORIENTED_EDGE('',*,*,#601,.T.);
#900=ORIENTED_EDGE('',*,*,#653,.T.);
#901=ORIENTED_EDGE('',*,*,#666,.T.);
#902=ORIENTED_EDGE('',*,*,#667,.F.);
#903=ORIENTED_EDGE('',*,*,#668,.T.);
#904=ORIENTED_EDGE('',*,*,#669,.T.);
#905=ORIENTED_EDGE('',*,*,#670,.T.);
#906=ORIENTED_EDGE('',*,*,#671,.T.);
#907=ORIENTED_EDGE('',*,*,#659,.T.);
#908=ORIENTED_EDGE('',*,*,#672,.T.);
#909=ORIENTED_EDGE('',*,*,#673,.T.);
#910=ORIENTED_EDGE('',*,*,#674,.T.);
#911=ORIENTED_EDGE('',*,*,#551,.T.);
#912=ORIENTED_EDGE('',*,*,#587,.T.);
#913=ORIENTED_EDGE('',*,*,#675,.T.);
#914=ORIENTED_EDGE('',*,*,#676,.T.);
#915=ORIENTED_EDGE('',*,*,#677,.T.);
#916=ORIENTED_EDGE('',*,*,#678,.T.);
#917=ORIENTED_EDGE('',*,*,#662,.T.);
#918=ORIENTED_EDGE('',*,*,#593,.T.);
#919=ORIENTED_EDGE('',*,*,#568,.T.);
#920=ORIENTED_EDGE('',*,*,#658,.T.);
#921=ORIENTED_EDGE('',*,*,#679,.T.);
#922=ORIENTED_EDGE('',*,*,#588,.T.);
#923=ORIENTED_EDGE('',*,*,#558,.T.);
#924=ORIENTED_EDGE('',*,*,#680,.T.);
#925=ORIENTED_EDGE('',*,*,#681,.T.);
#926=ORIENTED_EDGE('',*,*,#682,.T.);
#927=ORIENTED_EDGE('',*,*,#683,.T.);
#928=ORIENTED_EDGE('',*,*,#684,.T.);
#929=ORIENTED_EDGE('',*,*,#654,.T.);
#930=ORIENTED_EDGE('',*,*,#625,.T.);
#931=ORIENTED_EDGE('',*,*,#581,.T.);
#932=ORIENTED_EDGE('',*,*,#602,.T.);
#933=ORIENTED_EDGE('',*,*,#667,.T.);
#934=ORIENTED_EDGE('',*,*,#665,.T.);
#935=ORIENTED_EDGE('',*,*,#628,.T.);
#936=ORIENTED_EDGE('',*,*,#685,.T.);
#937=ORIENTED_EDGE('',*,*,#668,.F.);
#938=ORIENTED_EDGE('',*,*,#686,.F.);
#939=ORIENTED_EDGE('',*,*,#553,.T.);
#940=ORIENTED_EDGE('',*,*,#613,.F.);
#941=ORIENTED_EDGE('',*,*,#687,.F.);
#942=ORIENTED_EDGE('',*,*,#641,.T.);
#943=ORIENTED_EDGE('',*,*,#688,.F.);
#944=ORIENTED_EDGE('',*,*,#680,.F.);
#945=ORIENTED_EDGE('',*,*,#557,.T.);
#946=ORIENTED_EDGE('',*,*,#561,.T.);
#947=ORIENTED_EDGE('',*,*,#642,.T.);
#948=ORIENTED_EDGE('',*,*,#687,.T.);
#949=ORIENTED_EDGE('',*,*,#612,.F.);
#950=ORIENTED_EDGE('',*,*,#591,.F.);
#951=ORIENTED_EDGE('',*,*,#657,.T.);
#952=ORIENTED_EDGE('',*,*,#643,.T.);
#953=ORIENTED_EDGE('',*,*,#589,.T.);
#954=ORIENTED_EDGE('',*,*,#679,.F.);
#955=ORIENTED_EDGE('',*,*,#648,.T.);
#956=ORIENTED_EDGE('',*,*,#689,.T.);
#957=ORIENTED_EDGE('',*,*,#677,.F.);
#958=ORIENTED_EDGE('',*,*,#690,.F.);
#959=ORIENTED_EDGE('',*,*,#649,.T.);
#960=ORIENTED_EDGE('',*,*,#690,.T.);
#961=ORIENTED_EDGE('',*,*,#676,.F.);
#962=ORIENTED_EDGE('',*,*,#691,.F.);
#963=ORIENTED_EDGE('',*,*,#586,.T.);
#964=ORIENTED_EDGE('',*,*,#650,.T.);
#965=ORIENTED_EDGE('',*,*,#691,.T.);
#966=ORIENTED_EDGE('',*,*,#675,.F.);
#967=ORIENTED_EDGE('',*,*,#637,.T.);
#968=ORIENTED_EDGE('',*,*,#655,.T.);
#969=ORIENTED_EDGE('',*,*,#684,.F.);
#970=ORIENTED_EDGE('',*,*,#692,.F.);
#971=ORIENTED_EDGE('',*,*,#638,.T.);
#972=ORIENTED_EDGE('',*,*,#692,.T.);
#973=ORIENTED_EDGE('',*,*,#683,.F.);
#974=ORIENTED_EDGE('',*,*,#693,.F.);
#975=ORIENTED_EDGE('',*,*,#639,.T.);
#976=ORIENTED_EDGE('',*,*,#693,.T.);
#977=ORIENTED_EDGE('',*,*,#682,.F.);
#978=ORIENTED_EDGE('',*,*,#694,.F.);
#979=ORIENTED_EDGE('',*,*,#688,.T.);
#980=ORIENTED_EDGE('',*,*,#640,.T.);
#981=ORIENTED_EDGE('',*,*,#694,.T.);
#982=ORIENTED_EDGE('',*,*,#681,.F.);
#983=ORIENTED_EDGE('',*,*,#647,.T.);
#984=ORIENTED_EDGE('',*,*,#663,.T.);
#985=ORIENTED_EDGE('',*,*,#678,.F.);
#986=ORIENTED_EDGE('',*,*,#689,.F.);
#987=ORIENTED_EDGE('',*,*,#633,.T.);
#988=ORIENTED_EDGE('',*,*,#660,.T.);
#989=ORIENTED_EDGE('',*,*,#671,.F.);
#990=ORIENTED_EDGE('',*,*,#695,.F.);
#991=ORIENTED_EDGE('',*,*,#634,.T.);
#992=ORIENTED_EDGE('',*,*,#695,.T.);
#993=ORIENTED_EDGE('',*,*,#670,.F.);
#994=ORIENTED_EDGE('',*,*,#696,.F.);
#995=ORIENTED_EDGE('',*,*,#635,.T.);
#996=ORIENTED_EDGE('',*,*,#696,.T.);
#997=ORIENTED_EDGE('',*,*,#669,.F.);
#998=ORIENTED_EDGE('',*,*,#685,.F.);
#999=ORIENTED_EDGE('',*,*,#629,.T.);
#1000=ORIENTED_EDGE('',*,*,#686,.T.);
#1001=ORIENTED_EDGE('',*,*,#674,.F.);
#1002=ORIENTED_EDGE('',*,*,#697,.F.);
#1003=ORIENTED_EDGE('',*,*,#630,.T.);
#1004=ORIENTED_EDGE('',*,*,#697,.T.);
#1005=ORIENTED_EDGE('',*,*,#673,.F.);
#1006=ORIENTED_EDGE('',*,*,#698,.F.);
#1007=ORIENTED_EDGE('',*,*,#631,.T.);
#1008=ORIENTED_EDGE('',*,*,#698,.T.);
#1009=ORIENTED_EDGE('',*,*,#672,.F.);
#1010=ORIENTED_EDGE('',*,*,#661,.F.);
#1011=PLANE('',#1117);
#1012=PLANE('',#1118);
#1013=PLANE('',#1119);
#1014=PLANE('',#1120);
#1015=PLANE('',#1121);
#1016=PLANE('',#1122);
#1017=PLANE('',#1123);
#1018=PLANE('',#1124);
#1019=PLANE('',#1125);
#1020=PLANE('',#1126);
#1021=PLANE('',#1127);
#1022=PLANE('',#1128);
#1023=PLANE('',#1129);
#1024=PLANE('',#1130);
#1025=PLANE('',#1131);
#1026=PLANE('',#1132);
#1027=PLANE('',#1133);
#1028=PLANE('',#1136);
#1029=PLANE('',#1139);
#1030=PLANE('',#1142);
#1031=PLANE('',#1155);
#1032=PLANE('',#1156);
#1033=PLANE('',#1168);
#1034=PLANE('',#1169);
#1035=PLANE('',#1171);
#1036=PLANE('',#1172);
#1037=PLANE('',#1174);
#1038=PLANE('',#1175);
#1039=PLANE('',#1176);
#1040=PLANE('',#1185);
#1041=PLANE('',#1186);
#1042=PLANE('',#1188);
#1043=PLANE('',#1189);
#1044=PLANE('',#1191);
#1045=PLANE('',#1193);
#1046=PLANE('',#1195);
#1047=PLANE('',#1198);
#1048=PLANE('',#1201);
#1049=ADVANCED_FACE('',(#73),#1011,.F.);
#1050=ADVANCED_FACE('',(#74),#1012,.F.);
#1051=ADVANCED_FACE('',(#75),#1013,.F.);
#1052=ADVANCED_FACE('',(#76),#1014,.F.);
#1053=ADVANCED_FACE('',(#77),#1015,.F.);
#1054=ADVANCED_FACE('',(#78),#1016,.F.);
#1055=ADVANCED_FACE('',(#79),#1017,.F.);
#1056=ADVANCED_FACE('',(#80),#1018,.F.);
#1057=ADVANCED_FACE('',(#81),#1019,.F.);
#1058=ADVANCED_FACE('',(#82),#1020,.F.);
#1059=ADVANCED_FACE('',(#83),#1021,.F.);
#1060=ADVANCED_FACE('',(#84),#1022,.F.);
#1061=ADVANCED_FACE('',(#85),#1023,.T.);
#1062=ADVANCED_FACE('',(#86),#1024,.T.);
#1063=ADVANCED_FACE('',(#87),#1025,.T.);
#1064=ADVANCED_FACE('',(#88),#1026,.T.);
#1065=ADVANCED_FACE('',(#89,#31),#1027,.T.);
#1066=ADVANCED_FACE('',(#90,#32),#1028,.T.);
#1067=ADVANCED_FACE('',(#91,#33),#1029,.T.);
#1068=ADVANCED_FACE('',(#92,#34),#1030,.T.);
#1069=ADVANCED_FACE('',(#93),#15,.F.);
#1070=ADVANCED_FACE('',(#94),#16,.F.);
#1071=ADVANCED_FACE('',(#95),#17,.F.);
#1072=ADVANCED_FACE('',(#96),#18,.F.);
#1073=ADVANCED_FACE('',(#97),#19,.T.);
#1074=ADVANCED_FACE('',(#98),#1031,.T.);
#1075=ADVANCED_FACE('',(#99,#35,#36,#37,#38,#39),#1032,.F.);
#1076=ADVANCED_FACE('',(#100),#1033,.T.);
#1077=ADVANCED_FACE('',(#101),#1034,.T.);
#1078=ADVANCED_FACE('',(#102),#20,.T.);
#1079=ADVANCED_FACE('',(#103),#1035,.T.);
#1080=ADVANCED_FACE('',(#104),#1036,.T.);
#1081=ADVANCED_FACE('',(#105),#21,.T.);
#1082=ADVANCED_FACE('',(#106),#1037,.T.);
#1083=ADVANCED_FACE('',(#107),#1038,.T.);
#1084=ADVANCED_FACE('',(#108,#40),#1039,.T.);
#1085=ADVANCED_FACE('',(#109),#1040,.T.);
#1086=ADVANCED_FACE('',(#110),#1041,.T.);
#1087=ADVANCED_FACE('',(#111),#22,.T.);
#1088=ADVANCED_FACE('',(#112),#1042,.T.);
#1089=ADVANCED_FACE('',(#113),#1043,.T.);
#1090=ADVANCED_FACE('',(#114),#23,.F.);
#1091=ADVANCED_FACE('',(#115),#1044,.T.);
#1092=ADVANCED_FACE('',(#116),#24,.F.);
#1093=ADVANCED_FACE('',(#117),#1045,.T.);
#1094=ADVANCED_FACE('',(#118),#25,.F.);
#1095=ADVANCED_FACE('',(#119),#1046,.T.);
#1096=ADVANCED_FACE('',(#120),#26,.F.);
#1097=ADVANCED_FACE('',(#121),#27,.T.);
#1098=ADVANCED_FACE('',(#122),#1047,.T.);
#1099=ADVANCED_FACE('',(#123),#28,.T.);
#1100=ADVANCED_FACE('',(#124),#29,.T.);
#1101=ADVANCED_FACE('',(#125),#1048,.T.);
#1102=ADVANCED_FACE('',(#126),#30,.T.);
#1103=CLOSED_SHELL('',(#1049,#1050,#1051,#1052,#1053,#1054,#1055,#1056,
#1057,#1058,#1059,#1060,#1061,#1062,#1063,#1064,#1065,#1066,#1067,#1068,
#1069,#1070,#1071,#1072,#1073,#1074,#1075,#1076,#1077,#1078,#1079,#1080,
#1081,#1082,#1083,#1084,#1085,#1086,#1087,#1088,#1089,#1090,#1091,#1092,
#1093,#1094,#1095,#1096,#1097,#1098,#1099,#1100,#1101,#1102));
#1104=DERIVED_UNIT_ELEMENT(#1106,1.);
#1105=DERIVED_UNIT_ELEMENT(#1821,-3.);
#1106=(
MASS_UNIT()
NAMED_UNIT(*)
SI_UNIT(.KILO.,.GRAM.)
);
#1107=DERIVED_UNIT((#1104,#1105));
#1108=MEASURE_REPRESENTATION_ITEM('density measure',
POSITIVE_RATIO_MEASURE(7850.),#1107);
#1109=PROPERTY_DEFINITION_REPRESENTATION(#1114,#1111);
#1110=PROPERTY_DEFINITION_REPRESENTATION(#1115,#1112);
#1111=REPRESENTATION('material name',(#1113),#1818);
#1112=REPRESENTATION('density',(#1108),#1818);
#1113=DESCRIPTIVE_REPRESENTATION_ITEM('\X\C7elik','\X\C7elik');
#1114=PROPERTY_DEFINITION('material property','material name',#1828);
#1115=PROPERTY_DEFINITION('material property','density of part',#1828);
#1116=AXIS2_PLACEMENT_3D('',#1501,#1203,#1204);
#1117=AXIS2_PLACEMENT_3D('',#1502,#1205,#1206);
#1118=AXIS2_PLACEMENT_3D('',#1511,#1211,#1212);
#1119=AXIS2_PLACEMENT_3D('',#1517,#1216,#1217);
#1120=AXIS2_PLACEMENT_3D('',#1523,#1221,#1222);
#1121=AXIS2_PLACEMENT_3D('',#1532,#1227,#1228);
#1122=AXIS2_PLACEMENT_3D('',#1541,#1233,#1234);
#1123=AXIS2_PLACEMENT_3D('',#1544,#1237,#1238);
#1124=AXIS2_PLACEMENT_3D('',#1553,#1243,#1244);
#1125=AXIS2_PLACEMENT_3D('',#1562,#1249,#1250);
#1126=AXIS2_PLACEMENT_3D('',#1565,#1253,#1254);
#1127=AXIS2_PLACEMENT_3D('',#1574,#1259,#1260);
#1128=AXIS2_PLACEMENT_3D('',#1580,#1264,#1265);
#1129=AXIS2_PLACEMENT_3D('',#1586,#1269,#1270);
#1130=AXIS2_PLACEMENT_3D('',#1596,#1276,#1277);
#1131=AXIS2_PLACEMENT_3D('',#1606,#1283,#1284);
#1132=AXIS2_PLACEMENT_3D('',#1616,#1290,#1291);
#1133=AXIS2_PLACEMENT_3D('',#1626,#1297,#1298);
#1134=AXIS2_PLACEMENT_3D('',#1629,#1300,#1301);
#1135=AXIS2_PLACEMENT_3D('',#1631,#1302,#1303);
#1136=AXIS2_PLACEMENT_3D('',#1632,#1304,#1305);
#1137=AXIS2_PLACEMENT_3D('',#1634,#1306,#1307);
#1138=AXIS2_PLACEMENT_3D('',#1637,#1309,#1310);
#1139=AXIS2_PLACEMENT_3D('',#1638,#1311,#1312);
#1140=AXIS2_PLACEMENT_3D('',#1641,#1314,#1315);
#1141=AXIS2_PLACEMENT_3D('',#1643,#1316,#1317);
#1142=AXIS2_PLACEMENT_3D('',#1644,#1318,#1319);
#1143=AXIS2_PLACEMENT_3D('',#1646,#1320,#1321);
#1144=AXIS2_PLACEMENT_3D('',#1649,#1323,#1324);
#1145=AXIS2_PLACEMENT_3D('',#1650,#1325,#1326);
#1146=AXIS2_PLACEMENT_3D('',#1652,#1327,#1328);
#1147=AXIS2_PLACEMENT_3D('',#1654,#1330,#1331);
#1148=AXIS2_PLACEMENT_3D('',#1656,#1332,#1333);
#1149=AXIS2_PLACEMENT_3D('',#1658,#1335,#1336);
#1150=AXIS2_PLACEMENT_3D('',#1660,#1337,#1338);
#1151=AXIS2_PLACEMENT_3D('',#1662,#1340,#1341);
#1152=AXIS2_PLACEMENT_3D('',#1664,#1342,#1343);
#1153=AXIS2_PLACEMENT_3D('',#1666,#1345,#1346);
#1154=AXIS2_PLACEMENT_3D('',#1668,#1347,#1348);
#1155=AXIS2_PLACEMENT_3D('',#1670,#1350,#1351);
#1156=AXIS2_PLACEMENT_3D('',#1676,#1355,#1356);
#1157=AXIS2_PLACEMENT_3D('',#1681,#1358,#1359);
#1158=AXIS2_PLACEMENT_3D('',#1685,#1361,#1362);
#1159=AXIS2_PLACEMENT_3D('',#1689,#1364,#1365);
#1160=AXIS2_PLACEMENT_3D('',#1692,#1367,#1368);
#1161=AXIS2_PLACEMENT_3D('',#1696,#1370,#1371);
#1162=AXIS2_PLACEMENT_3D('',#1700,#1373,#1374);
#1163=AXIS2_PLACEMENT_3D('',#1705,#1377,#1378);
#1164=AXIS2_PLACEMENT_3D('',#1710,#1381,#1382);
#1165=AXIS2_PLACEMENT_3D('',#1714,#1384,#1385);
#1166=AXIS2_PLACEMENT_3D('',#1718,#1387,#1388);
#1167=AXIS2_PLACEMENT_3D('',#1721,#1390,#1391);
#1168=AXIS2_PLACEMENT_3D('',#1725,#1394,#1395);
#1169=AXIS2_PLACEMENT_3D('',#1729,#1398,#1399);
#1170=AXIS2_PLACEMENT_3D('',#1734,#1403,#1404);
#1171=AXIS2_PLACEMENT_3D('',#1735,#1405,#1406);
#1172=AXIS2_PLACEMENT_3D('',#1741,#1410,#1411);
#1173=AXIS2_PLACEMENT_3D('',#1745,#1414,#1415);
#1174=AXIS2_PLACEMENT_3D('',#1747,#1417,#1418);
#1175=AXIS2_PLACEMENT_3D('',#1751,#1421,#1422);
#1176=AXIS2_PLACEMENT_3D('',#1753,#1424,#1425);
#1177=AXIS2_PLACEMENT_3D('',#1758,#1427,#1428);
#1178=AXIS2_PLACEMENT_3D('',#1761,#1430,#1431);
#1179=AXIS2_PLACEMENT_3D('',#1763,#1432,#1433);
#1180=AXIS2_PLACEMENT_3D('',#1766,#1435,#1436);
#1181=AXIS2_PLACEMENT_3D('',#1770,#1438,#1439);
#1182=AXIS2_PLACEMENT_3D('',#1773,#1441,#1442);
#1183=AXIS2_PLACEMENT_3D('',#1780,#1446,#1447);
#1184=AXIS2_PLACEMENT_3D('',#1783,#1449,#1450);
#1185=AXIS2_PLACEMENT_3D('',#1784,#1451,#1452);
#1186=AXIS2_PLACEMENT_3D('',#1787,#1455,#1456);
#1187=AXIS2_PLACEMENT_3D('',#1790,#1459,#1460);
#1188=AXIS2_PLACEMENT_3D('',#1791,#1461,#1462);
#1189=AXIS2_PLACEMENT_3D('',#1792,#1463,#1464);
#1190=AXIS2_PLACEMENT_3D('',#1795,#1467,#1468);
#1191=AXIS2_PLACEMENT_3D('',#1797,#1470,#1471);
#1192=AXIS2_PLACEMENT_3D('',#1798,#1472,#1473);
#1193=AXIS2_PLACEMENT_3D('',#1800,#1475,#1476);
#1194=AXIS2_PLACEMENT_3D('',#1802,#1478,#1479);
#1195=AXIS2_PLACEMENT_3D('',#1804,#1481,#1482);
#1196=AXIS2_PLACEMENT_3D('',#1805,#1483,#1484);
#1197=AXIS2_PLACEMENT_3D('',#1806,#1485,#1486);
#1198=AXIS2_PLACEMENT_3D('',#1808,#1488,#1489);
#1199=AXIS2_PLACEMENT_3D('',#1810,#1491,#1492);
#1200=AXIS2_PLACEMENT_3D('',#1811,#1493,#1494);
#1201=AXIS2_PLACEMENT_3D('',#1813,#1496,#1497);
#1202=AXIS2_PLACEMENT_3D('',#1815,#1499,#1500);
#1203=DIRECTION('axis',(0.,0.,1.));
#1204=DIRECTION('refdir',(1.,0.,0.));
#1205=DIRECTION('center_axis',(0.,0.,-1.));
#1206=DIRECTION('ref_axis',(-1.,0.,0.));
#1207=DIRECTION('',(-1.,0.,0.));
#1208=DIRECTION('',(0.,-1.,0.));
#1209=DIRECTION('',(1.,0.,0.));
#1210=DIRECTION('',(0.,1.,0.));
#1211=DIRECTION('center_axis',(-1.,0.,0.));
#1212=DIRECTION('ref_axis',(0.,1.,0.));
#1213=DIRECTION('',(0.,0.,1.));
#1214=DIRECTION('',(0.,0.,-1.));
#1215=DIRECTION('',(0.,1.,0.));
#1216=DIRECTION('center_axis',(1.,0.,0.));
#1217=DIRECTION('ref_axis',(0.,-1.,0.));
#1218=DIRECTION('',(0.,0.,-1.));
#1219=DIRECTION('',(0.,-1.,0.));
#1220=DIRECTION('',(0.,0.,1.));
#1221=DIRECTION('center_axis',(1.,0.,0.));
#1222=DIRECTION('ref_axis',(0.,-1.,0.));
#1223=DIRECTION('',(0.,0.,1.));
#1224=DIRECTION('',(0.,-1.,0.));
#1225=DIRECTION('',(0.,0.,-1.));
#1226=DIRECTION('',(0.,-1.,0.));
#1227=DIRECTION('center_axis',(-1.,0.,0.));
#1228=DIRECTION('ref_axis',(0.,1.,0.));
#1229=DIRECTION('',(0.,0.,-1.));
#1230=DIRECTION('',(0.,1.,0.));
#1231=DIRECTION('',(0.,0.,1.));
#1232=DIRECTION('',(0.,1.,0.));
#1233=DIRECTION('center_axis',(0.,0.,-1.));
#1234=DIRECTION('ref_axis',(-1.,0.,0.));
#1235=DIRECTION('',(1.,0.,0.));
#1236=DIRECTION('',(-1.,0.,0.));
#1237=DIRECTION('center_axis',(1.,0.,0.));
#1238=DIRECTION('ref_axis',(0.,-1.,0.));
#1239=DIRECTION('',(0.,0.,1.));
#1240=DIRECTION('',(0.,-1.,0.));
#1241=DIRECTION('',(0.,0.,-1.));
#1242=DIRECTION('',(0.,-1.,0.));
#1243=DIRECTION('center_axis',(-1.,0.,0.));
#1244=DIRECTION('ref_axis',(0.,1.,0.));
#1245=DIRECTION('',(0.,0.,-1.));
#1246=DIRECTION('',(0.,1.,0.));
#1247=DIRECTION('',(0.,0.,1.));
#1248=DIRECTION('',(0.,1.,0.));
#1249=DIRECTION('center_axis',(0.,0.,-1.));
#1250=DIRECTION('ref_axis',(-1.,0.,0.));
#1251=DIRECTION('',(1.,0.,0.));
#1252=DIRECTION('',(-1.,0.,0.));
#1253=DIRECTION('center_axis',(0.,0.,-1.));
#1254=DIRECTION('ref_axis',(-1.,0.,0.));
#1255=DIRECTION('',(-1.,0.,0.));
#1256=DIRECTION('',(0.,-1.,0.));
#1257=DIRECTION('',(1.,0.,0.));
#1258=DIRECTION('',(0.,1.,0.));
#1259=DIRECTION('center_axis',(-1.,0.,0.));
#1260=DIRECTION('ref_axis',(0.,1.,0.));
#1261=DIRECTION('',(0.,0.,1.));
#1262=DIRECTION('',(0.,0.,-1.));
#1263=DIRECTION('',(0.,1.,0.));
#1264=DIRECTION('center_axis',(1.,0.,0.));
#1265=DIRECTION('ref_axis',(0.,-1.,0.));
#1266=DIRECTION('',(0.,0.,-1.));
#1267=DIRECTION('',(0.,-1.,0.));
#1268=DIRECTION('',(0.,0.,1.));
#1269=DIRECTION('center_axis',(0.,-1.,0.));
#1270=DIRECTION('ref_axis',(1.,0.,0.));
#1271=DIRECTION('',(1.,0.,0.));
#1272=DIRECTION('',(0.,0.,1.));
#1273=DIRECTION('',(1.,0.,0.));
#1274=DIRECTION('',(0.,0.,-1.));
#1275=DIRECTION('',(1.,0.,0.));
#1276=DIRECTION('center_axis',(0.,-1.,0.));
#1277=DIRECTION('ref_axis',(1.,0.,0.));
#1278=DIRECTION('',(1.,0.,0.));
#1279=DIRECTION('',(0.,0.,1.));
#1280=DIRECTION('',(1.,0.,0.));
#1281=DIRECTION('',(0.,0.,1.));
#1282=DIRECTION('',(1.,0.,0.));
#1283=DIRECTION('center_axis',(0.,-1.,0.));
#1284=DIRECTION('ref_axis',(1.,0.,0.));
#1285=DIRECTION('',(1.,0.,0.));
#1286=DIRECTION('',(0.,0.,1.));
#1287=DIRECTION('',(1.,0.,0.));
#1288=DIRECTION('',(0.,0.,1.));
#1289=DIRECTION('',(1.,0.,0.));
#1290=DIRECTION('center_axis',(0.,-1.,0.));
#1291=DIRECTION('ref_axis',(1.,0.,0.));
#1292=DIRECTION('',(1.,0.,0.));
#1293=DIRECTION('',(0.,0.,1.));
#1294=DIRECTION('',(1.,0.,0.));
#1295=DIRECTION('',(0.,0.,-1.));
#1296=DIRECTION('',(1.,0.,0.));
#1297=DIRECTION('center_axis',(0.,0.,1.));
#1298=DIRECTION('ref_axis',(1.,0.,0.));
#1299=DIRECTION('',(-1.,0.,0.));
#1300=DIRECTION('center_axis',(0.,0.,1.));
#1301=DIRECTION('ref_axis',(1.,0.,0.));
#1302=DIRECTION('center_axis',(0.,0.,-1.));
#1303=DIRECTION('ref_axis',(1.,0.,0.));
#1304=DIRECTION('center_axis',(0.,0.,1.));
#1305=DIRECTION('ref_axis',(1.,0.,0.));
#1306=DIRECTION('center_axis',(0.,0.,1.));
#1307=DIRECTION('ref_axis',(1.,0.,0.));
#1308=DIRECTION('',(-1.,0.,0.));
#1309=DIRECTION('center_axis',(0.,0.,-1.));
#1310=DIRECTION('ref_axis',(1.,0.,0.));
#1311=DIRECTION('center_axis',(0.,0.,1.));
#1312=DIRECTION('ref_axis',(1.,0.,0.));
#1313=DIRECTION('',(-1.,0.,0.));
#1314=DIRECTION('center_axis',(0.,0.,1.));
#1315=DIRECTION('ref_axis',(1.,0.,0.));
#1316=DIRECTION('center_axis',(0.,0.,-1.));
#1317=DIRECTION('ref_axis',(1.,0.,0.));
#1318=DIRECTION('center_axis',(0.,0.,1.));
#1319=DIRECTION('ref_axis',(1.,0.,0.));
#1320=DIRECTION('center_axis',(0.,0.,1.));
#1321=DIRECTION('ref_axis',(1.,0.,0.));
#1322=DIRECTION('',(-1.,0.,0.));
#1323=DIRECTION('center_axis',(0.,0.,-1.));
#1324=DIRECTION('ref_axis',(1.,0.,0.));
#1325=DIRECTION('center_axis',(0.,0.,1.));
#1326=DIRECTION('ref_axis',(1.,0.,0.));
#1327=DIRECTION('center_axis',(0.,0.,1.));
#1328=DIRECTION('ref_axis',(1.,0.,0.));
#1329=DIRECTION('',(0.,0.,1.));
#1330=DIRECTION('center_axis',(0.,0.,1.));
#1331=DIRECTION('ref_axis',(1.,0.,0.));
#1332=DIRECTION('center_axis',(0.,0.,1.));
#1333=DIRECTION('ref_axis',(1.,0.,0.));
#1334=DIRECTION('',(0.,0.,1.));
#1335=DIRECTION('center_axis',(0.,0.,1.));
#1336=DIRECTION('ref_axis',(1.,0.,0.));
#1337=DIRECTION('center_axis',(0.,0.,1.));
#1338=DIRECTION('ref_axis',(1.,0.,0.));
#1339=DIRECTION('',(0.,0.,1.));
#1340=DIRECTION('center_axis',(0.,0.,1.));
#1341=DIRECTION('ref_axis',(1.,0.,0.));
#1342=DIRECTION('center_axis',(0.,0.,1.));
#1343=DIRECTION('ref_axis',(1.,0.,0.));
#1344=DIRECTION('',(0.,0.,1.));
#1345=DIRECTION('center_axis',(0.,0.,1.));
#1346=DIRECTION('ref_axis',(-1.,1.22464679914735E-16,0.));
#1347=DIRECTION('center_axis',(0.,0.,1.));
#1348=DIRECTION('ref_axis',(1.,0.,0.));
#1349=DIRECTION('',(0.,0.,1.));
#1350=DIRECTION('center_axis',(0.,1.,0.));
#1351=DIRECTION('ref_axis',(-1.,0.,0.));
#1352=DIRECTION('',(-1.,0.,0.));
#1353=DIRECTION('',(0.,0.,1.));
#1354=DIRECTION('',(-1.,0.,0.));
#1355=DIRECTION('center_axis',(0.,0.,1.));
#1356=DIRECTION('ref_axis',(1.,0.,0.));
#1357=DIRECTION('',(0.,1.,0.));
#1358=DIRECTION('center_axis',(0.,0.,1.));
#1359=DIRECTION('ref_axis',(0.,-1.,0.));
#1360=DIRECTION('',(1.,0.,0.));
#1361=DIRECTION('center_axis',(0.,0.,1.));
#1362=DIRECTION('ref_axis',(-1.,0.,0.));
#1363=DIRECTION('',(0.,-1.,0.));
#1364=DIRECTION('center_axis',(0.,0.,1.));
#1365=DIRECTION('ref_axis',(0.,1.,0.));
#1366=DIRECTION('',(-1.,0.,0.));
#1367=DIRECTION('center_axis',(0.,0.,1.));
#1368=DIRECTION('ref_axis',(1.,0.,0.));
#1369=DIRECTION('',(0.,-1.,0.));
#1370=DIRECTION('center_axis',(0.,0.,-1.));
#1371=DIRECTION('ref_axis',(1.,0.,0.));
#1372=DIRECTION('',(1.,0.,0.));
#1373=DIRECTION('center_axis',(0.,0.,-1.));
#1374=DIRECTION('ref_axis',(0.,1.,0.));
#1375=DIRECTION('',(0.,1.,0.));
#1376=DIRECTION('',(-1.,0.,0.));
#1377=DIRECTION('center_axis',(0.,0.,1.));
#1378=DIRECTION('ref_axis',(1.,0.,0.));
#1379=DIRECTION('',(0.,1.,0.));
#1380=DIRECTION('',(-1.,0.,0.));
#1381=DIRECTION('center_axis',(0.,0.,1.));
#1382=DIRECTION('ref_axis',(1.,0.,0.));
#1383=DIRECTION('',(0.,1.,0.));
#1384=DIRECTION('center_axis',(0.,0.,-1.));
#1385=DIRECTION('ref_axis',(-1.,0.,0.));
#1386=DIRECTION('',(-1.,0.,0.));
#1387=DIRECTION('center_axis',(0.,0.,-1.));
#1388=DIRECTION('ref_axis',(0.,-1.,0.));
#1389=DIRECTION('',(0.,-1.,0.));
#1390=DIRECTION('center_axis',(0.,0.,1.));
#1391=DIRECTION('ref_axis',(1.,0.,0.));
#1392=DIRECTION('',(-1.,0.,0.));
#1393=DIRECTION('',(0.,-1.,0.));
#1394=DIRECTION('center_axis',(-1.,0.,0.));
#1395=DIRECTION('ref_axis',(0.,-1.,0.));
#1396=DIRECTION('',(0.,-1.,0.));
#1397=DIRECTION('',(0.,0.,1.));
#1398=DIRECTION('center_axis',(0.,1.,0.));
#1399=DIRECTION('ref_axis',(-1.,0.,0.));
#1400=DIRECTION('',(0.,0.,1.));
#1401=DIRECTION('',(0.,0.,-1.));
#1402=DIRECTION('',(-1.,0.,0.));
#1403=DIRECTION('center_axis',(0.,0.,1.));
#1404=DIRECTION('ref_axis',(1.,0.,0.));
#1405=DIRECTION('center_axis',(-1.,0.,0.));
#1406=DIRECTION('ref_axis',(0.,-1.,0.));
#1407=DIRECTION('',(0.,-1.,0.));
#1408=DIRECTION('',(0.,0.,1.));
#1409=DIRECTION('',(0.,0.,1.));
#1410=DIRECTION('center_axis',(1.,0.,0.));
#1411=DIRECTION('ref_axis',(0.,1.,0.));
#1412=DIRECTION('',(0.,1.,0.));
#1413=DIRECTION('',(0.,0.,1.));
#1414=DIRECTION('center_axis',(0.,0.,1.));
#1415=DIRECTION('ref_axis',(-1.,1.22464679914735E-16,0.));
#1416=DIRECTION('',(0.,0.,1.));
#1417=DIRECTION('center_axis',(0.,1.,0.));
#1418=DIRECTION('ref_axis',(-1.,0.,0.));
#1419=DIRECTION('',(-1.,0.,0.));
#1420=DIRECTION('',(0.,0.,1.));
#1421=DIRECTION('center_axis',(-1.,0.,0.));
#1422=DIRECTION('ref_axis',(0.,-1.,0.));
#1423=DIRECTION('',(0.,-1.,0.));
#1424=DIRECTION('center_axis',(0.,0.,1.));
#1425=DIRECTION('ref_axis',(1.,0.,0.));
#1426=DIRECTION('',(0.,1.,0.));
#1427=DIRECTION('center_axis',(0.,0.,1.));
#1428=DIRECTION('ref_axis',(1.,0.,0.));
#1429=DIRECTION('',(-1.,0.,0.));
#1430=DIRECTION('center_axis',(0.,0.,1.));
#1431=DIRECTION('ref_axis',(0.,1.,0.));
#1432=DIRECTION('center_axis',(0.,0.,1.));
#1433=DIRECTION('ref_axis',(-1.,0.,0.));
#1434=DIRECTION('',(1.,0.,0.));
#1435=DIRECTION('center_axis',(0.,0.,1.));
#1436=DIRECTION('ref_axis',(0.,-1.,0.));
#1437=DIRECTION('',(0.,-1.,0.));
#1438=DIRECTION('center_axis',(0.,0.,-1.));
#1439=DIRECTION('ref_axis',(0.,-1.,0.));
#1440=DIRECTION('',(-1.,0.,0.));
#1441=DIRECTION('center_axis',(0.,0.,-1.));
#1442=DIRECTION('ref_axis',(-1.,0.,0.));
#1443=DIRECTION('',(0.,1.,0.));
#1444=DIRECTION('',(-1.,0.,0.));
#1445=DIRECTION('',(0.,1.,0.));
#1446=DIRECTION('center_axis',(0.,0.,-1.));
#1447=DIRECTION('ref_axis',(0.,1.,0.));
#1448=DIRECTION('',(1.,0.,0.));
#1449=DIRECTION('center_axis',(0.,0.,-1.));
#1450=DIRECTION('ref_axis',(1.,0.,0.));
#1451=DIRECTION('center_axis',(1.,0.,0.));
#1452=DIRECTION('ref_axis',(0.,1.,0.));
#1453=DIRECTION('',(0.,0.,1.));
#1454=DIRECTION('',(0.,0.,1.));
#1455=DIRECTION('center_axis',(0.,1.,0.));
#1456=DIRECTION('ref_axis',(-1.,0.,0.));
#1457=DIRECTION('',(0.,0.,1.));
#1458=DIRECTION('',(0.,0.,-1.));
#1459=DIRECTION('center_axis',(0.,0.,1.));
#1460=DIRECTION('ref_axis',(1.,0.,0.));
#1461=DIRECTION('center_axis',(1.,0.,0.));
#1462=DIRECTION('ref_axis',(0.,1.,0.));
#1463=DIRECTION('center_axis',(0.,1.,0.));
#1464=DIRECTION('ref_axis',(-1.,0.,0.));
#1465=DIRECTION('',(0.,0.,1.));
#1466=DIRECTION('',(0.,0.,1.));
#1467=DIRECTION('center_axis',(0.,0.,1.));
#1468=DIRECTION('ref_axis',(0.,-1.,0.));
#1469=DIRECTION('',(0.,0.,1.));
#1470=DIRECTION('center_axis',(-1.,0.,0.));
#1471=DIRECTION('ref_axis',(0.,-1.,0.));
#1472=DIRECTION('center_axis',(0.,0.,1.));
#1473=DIRECTION('ref_axis',(1.,0.,0.));
#1474=DIRECTION('',(0.,0.,1.));
#1475=DIRECTION('center_axis',(0.,-1.,0.));
#1476=DIRECTION('ref_axis',(1.,0.,0.));
#1477=DIRECTION('',(0.,0.,1.));
#1478=DIRECTION('center_axis',(0.,0.,1.));
#1479=DIRECTION('ref_axis',(0.,1.,0.));
#1480=DIRECTION('',(0.,0.,1.));
#1481=DIRECTION('center_axis',(1.,0.,0.));
#1482=DIRECTION('ref_axis',(0.,1.,0.));
#1483=DIRECTION('center_axis',(0.,0.,1.));
#1484=DIRECTION('ref_axis',(-1.,0.,0.));
#1485=DIRECTION('center_axis',(0.,0.,1.));
#1486=DIRECTION('ref_axis',(0.,1.,0.));
#1487=DIRECTION('',(0.,0.,1.));
#1488=DIRECTION('center_axis',(0.,1.,0.));
#1489=DIRECTION('ref_axis',(-1.,0.,0.));
#1490=DIRECTION('',(0.,0.,1.));
#1491=DIRECTION('center_axis',(0.,0.,1.));
#1492=DIRECTION('ref_axis',(1.,0.,0.));
#1493=DIRECTION('center_axis',(0.,0.,1.));
#1494=DIRECTION('ref_axis',(0.,-1.,0.));
#1495=DIRECTION('',(0.,0.,1.));
#1496=DIRECTION('center_axis',(0.,-1.,0.));
#1497=DIRECTION('ref_axis',(1.,0.,0.));
#1498=DIRECTION('',(0.,0.,1.));
#1499=DIRECTION('center_axis',(0.,0.,1.));
#1500=DIRECTION('ref_axis',(-1.,0.,0.));
#1501=CARTESIAN_POINT('',(0.,0.,0.));
#1502=CARTESIAN_POINT('Origin',(91.2,6.2,29.75));
#1503=CARTESIAN_POINT('',(92.05,4.7,29.75));
#1504=CARTESIAN_POINT('',(90.35,4.7,29.75));
#1505=CARTESIAN_POINT('',(90.5,4.7,29.75));
#1506=CARTESIAN_POINT('',(92.05,7.7,29.75));
#1507=CARTESIAN_POINT('',(92.05,4.45,29.75));
#1508=CARTESIAN_POINT('',(90.35,7.7,29.75));
#1509=CARTESIAN_POINT('',(92.6,7.7,29.75));
#1510=CARTESIAN_POINT('',(90.35,7.95,29.75));
#1511=CARTESIAN_POINT('Origin',(90.35,4.45,32.));
#1512=CARTESIAN_POINT('',(90.35,4.7,32.));
#1513=CARTESIAN_POINT('',(90.35,4.7,28.));
#1514=CARTESIAN_POINT('',(90.35,7.7,32.));
#1515=CARTESIAN_POINT('',(90.35,7.7,28.));
#1516=CARTESIAN_POINT('',(90.35,16.975,32.));
#1517=CARTESIAN_POINT('Origin',(92.05,7.95,32.));
#1518=CARTESIAN_POINT('',(92.05,4.7,32.));
#1519=CARTESIAN_POINT('',(92.05,4.7,28.));
#1520=CARTESIAN_POINT('',(92.05,7.7,32.));
#1521=CARTESIAN_POINT('',(92.05,18.725,32.));
#1522=CARTESIAN_POINT('',(92.05,7.7,28.));
#1523=CARTESIAN_POINT('Origin',(3.65,54.55,32.));
#1524=CARTESIAN_POINT('',(3.65,54.3,29.75));
#1525=CARTESIAN_POINT('',(3.65,54.3,32.));
#1526=CARTESIAN_POINT('',(3.65,54.3,28.));
#1527=CARTESIAN_POINT('',(3.65,51.3,29.75));
#1528=CARTESIAN_POINT('',(3.65,51.05,29.75));
#1529=CARTESIAN_POINT('',(3.65,51.3,32.));
#1530=CARTESIAN_POINT('',(3.65,51.3,28.));
#1531=CARTESIAN_POINT('',(3.65,42.025,32.));
#1532=CARTESIAN_POINT('Origin',(1.95,51.05,32.));
#1533=CARTESIAN_POINT('',(1.95,54.3,32.));
#1534=CARTESIAN_POINT('',(1.95,54.3,29.75));
#1535=CARTESIAN_POINT('',(1.95,54.3,28.));
#1536=CARTESIAN_POINT('',(1.95,51.3,32.));
#1537=CARTESIAN_POINT('',(1.95,40.275,32.));
#1538=CARTESIAN_POINT('',(1.95,51.3,29.75));
#1539=CARTESIAN_POINT('',(1.95,51.3,28.));
#1540=CARTESIAN_POINT('',(1.95,54.55,29.75));
#1541=CARTESIAN_POINT('Origin',(2.8,52.8,29.75));
#1542=CARTESIAN_POINT('',(3.5,54.3,29.75));
#1543=CARTESIAN_POINT('',(1.4,51.3,29.75));
#1544=CARTESIAN_POINT('Origin',(3.65,7.95,32.));
#1545=CARTESIAN_POINT('',(3.65,7.7,29.75));
#1546=CARTESIAN_POINT('',(3.65,7.7,32.));
#1547=CARTESIAN_POINT('',(3.65,7.7,28.));
#1548=CARTESIAN_POINT('',(3.65,4.7,29.75));
#1549=CARTESIAN_POINT('',(3.65,4.45,29.75));
#1550=CARTESIAN_POINT('',(3.65,4.7,32.));
#1551=CARTESIAN_POINT('',(3.65,4.7,28.));
#1552=CARTESIAN_POINT('',(3.65,18.725,32.));
#1553=CARTESIAN_POINT('Origin',(1.95,4.45,32.));
#1554=CARTESIAN_POINT('',(1.95,7.7,32.));
#1555=CARTESIAN_POINT('',(1.95,7.7,29.75));
#1556=CARTESIAN_POINT('',(1.95,7.7,28.));
#1557=CARTESIAN_POINT('',(1.95,4.7,32.));
#1558=CARTESIAN_POINT('',(1.95,16.975,32.));
#1559=CARTESIAN_POINT('',(1.95,4.7,29.75));
#1560=CARTESIAN_POINT('',(1.95,4.7,28.));
#1561=CARTESIAN_POINT('',(1.95,7.95,29.75));
#1562=CARTESIAN_POINT('Origin',(2.8,6.2,29.75));
#1563=CARTESIAN_POINT('',(3.5,7.7,29.75));
#1564=CARTESIAN_POINT('',(1.4,4.7,29.75));
#1565=CARTESIAN_POINT('Origin',(91.2,32.,29.75));
#1566=CARTESIAN_POINT('',(92.05,30.5,29.75));
#1567=CARTESIAN_POINT('',(90.35,30.5,29.75));
#1568=CARTESIAN_POINT('',(90.5,30.5,29.75));
#1569=CARTESIAN_POINT('',(92.05,33.5,29.75));
#1570=CARTESIAN_POINT('',(92.05,30.25,29.75));
#1571=CARTESIAN_POINT('',(90.35,33.5,29.75));
#1572=CARTESIAN_POINT('',(92.6,33.5,29.75));
#1573=CARTESIAN_POINT('',(90.35,33.75,29.75));
#1574=CARTESIAN_POINT('Origin',(90.35,30.25,32.));
#1575=CARTESIAN_POINT('',(90.35,30.5,32.));
#1576=CARTESIAN_POINT('',(90.35,30.5,28.));
#1577=CARTESIAN_POINT('',(90.35,33.5,32.));
#1578=CARTESIAN_POINT('',(90.35,33.5,28.));
#1579=CARTESIAN_POINT('',(90.35,29.875,32.));
#1580=CARTESIAN_POINT('Origin',(92.05,33.75,32.));
#1581=CARTESIAN_POINT('',(92.05,30.5,32.));
#1582=CARTESIAN_POINT('',(92.05,30.5,28.));
#1583=CARTESIAN_POINT('',(92.05,33.5,32.));
#1584=CARTESIAN_POINT('',(92.05,31.625,32.));
#1585=CARTESIAN_POINT('',(92.05,33.5,28.));
#1586=CARTESIAN_POINT('Origin',(89.8,4.7,24.));
#1587=CARTESIAN_POINT('',(89.8,4.7,32.));
#1588=CARTESIAN_POINT('',(87.8,4.7,32.));
#1589=CARTESIAN_POINT('',(89.8,4.7,24.));
#1590=CARTESIAN_POINT('',(89.8,4.7,24.));
#1591=CARTESIAN_POINT('',(92.4,4.7,24.));
#1592=CARTESIAN_POINT('',(87.8,4.7,24.));
#1593=CARTESIAN_POINT('',(92.4,4.7,32.));
#1594=CARTESIAN_POINT('',(92.4,4.7,24.));
#1595=CARTESIAN_POINT('',(87.8,4.7,32.));
#1596=CARTESIAN_POINT('Origin',(0.,51.3,24.));
#1597=CARTESIAN_POINT('',(1.6,51.3,32.));
#1598=CARTESIAN_POINT('',(0.,51.3,32.));
#1599=CARTESIAN_POINT('',(1.6,51.3,24.));
#1600=CARTESIAN_POINT('',(1.6,51.3,24.));
#1601=CARTESIAN_POINT('',(4.2,51.3,24.));
#1602=CARTESIAN_POINT('',(0.,51.3,24.));
#1603=CARTESIAN_POINT('',(4.2,51.3,32.));
#1604=CARTESIAN_POINT('',(4.2,51.3,24.));
#1605=CARTESIAN_POINT('',(0.,51.3,32.));
#1606=CARTESIAN_POINT('Origin',(0.,4.7,24.));
#1607=CARTESIAN_POINT('',(1.6,4.7,32.));
#1608=CARTESIAN_POINT('',(0.,4.7,32.));
#1609=CARTESIAN_POINT('',(1.6,4.7,24.));
#1610=CARTESIAN_POINT('',(1.6,4.7,24.));
#1611=CARTESIAN_POINT('',(4.2,4.7,24.));
#1612=CARTESIAN_POINT('',(0.,4.7,24.));
#1613=CARTESIAN_POINT('',(4.2,4.7,32.));
#1614=CARTESIAN_POINT('',(4.2,4.7,24.));
#1615=CARTESIAN_POINT('',(0.,4.7,32.));
#1616=CARTESIAN_POINT('Origin',(89.8,30.5,24.));
#1617=CARTESIAN_POINT('',(89.8,30.5,32.));
#1618=CARTESIAN_POINT('',(87.8,30.5,32.));
#1619=CARTESIAN_POINT('',(89.8,30.5,24.));
#1620=CARTESIAN_POINT('',(89.8,30.5,24.));
#1621=CARTESIAN_POINT('',(92.4,30.5,24.));
#1622=CARTESIAN_POINT('',(87.8,30.5,24.));
#1623=CARTESIAN_POINT('',(92.4,30.5,32.));
#1624=CARTESIAN_POINT('',(92.4,30.5,24.));
#1625=CARTESIAN_POINT('',(87.8,30.5,32.));
#1626=CARTESIAN_POINT('Origin',(47.,29.5,32.));
#1627=CARTESIAN_POINT('',(89.8,33.5,32.));
#1628=CARTESIAN_POINT('',(94.,33.5,32.));
#1629=CARTESIAN_POINT('Origin',(87.8,32.,32.));
#1630=CARTESIAN_POINT('',(86.6,32.,32.));
#1631=CARTESIAN_POINT('Origin',(87.8,32.,32.));
#1632=CARTESIAN_POINT('Origin',(47.,29.5,32.));
#1633=CARTESIAN_POINT('',(4.2,7.7,32.));
#1634=CARTESIAN_POINT('Origin',(6.2,6.2,32.));
#1635=CARTESIAN_POINT('',(6.2,7.7,32.));
#1636=CARTESIAN_POINT('',(5.,6.2,32.));
#1637=CARTESIAN_POINT('Origin',(6.2,6.2,32.));
#1638=CARTESIAN_POINT('Origin',(47.,29.5,32.));
#1639=CARTESIAN_POINT('',(89.8,7.7,32.));
#1640=CARTESIAN_POINT('',(94.,7.7,32.));
#1641=CARTESIAN_POINT('Origin',(87.8,6.2,32.));
#1642=CARTESIAN_POINT('',(86.6,6.2,32.));
#1643=CARTESIAN_POINT('Origin',(87.8,6.2,32.));
#1644=CARTESIAN_POINT('Origin',(47.,29.5,32.));
#1645=CARTESIAN_POINT('',(4.2,54.3,32.));
#1646=CARTESIAN_POINT('Origin',(6.2,52.8,32.));
#1647=CARTESIAN_POINT('',(6.2,54.3,32.));
#1648=CARTESIAN_POINT('',(5.,52.8,32.));
#1649=CARTESIAN_POINT('Origin',(6.2,52.8,32.));
#1650=CARTESIAN_POINT('Origin',(6.2,52.8,24.));
#1651=CARTESIAN_POINT('',(5.,52.8,24.));
#1652=CARTESIAN_POINT('Origin',(6.2,52.8,24.));
#1653=CARTESIAN_POINT('',(5.,52.8,24.));
#1654=CARTESIAN_POINT('Origin',(87.8,6.2,24.));
#1655=CARTESIAN_POINT('',(86.6,6.2,24.));
#1656=CARTESIAN_POINT('Origin',(87.8,6.2,24.));
#1657=CARTESIAN_POINT('',(86.6,6.2,24.));
#1658=CARTESIAN_POINT('Origin',(6.2,6.2,24.));
#1659=CARTESIAN_POINT('',(5.,6.2,24.));
#1660=CARTESIAN_POINT('Origin',(6.2,6.2,24.));
#1661=CARTESIAN_POINT('',(5.,6.2,24.));
#1662=CARTESIAN_POINT('Origin',(87.8,32.,24.));
#1663=CARTESIAN_POINT('',(86.6,32.,24.));
#1664=CARTESIAN_POINT('Origin',(87.8,32.,24.));
#1665=CARTESIAN_POINT('',(86.6,32.,24.));
#1666=CARTESIAN_POINT('Origin',(87.8,32.,24.));
#1667=CARTESIAN_POINT('',(89.8,33.5,24.));
#1668=CARTESIAN_POINT('Origin',(87.8,32.,24.));
#1669=CARTESIAN_POINT('',(89.8,33.5,24.));
#1670=CARTESIAN_POINT('Origin',(94.,33.5,24.));
#1671=CARTESIAN_POINT('',(92.4,33.5,32.));
#1672=CARTESIAN_POINT('',(94.,33.5,32.));
#1673=CARTESIAN_POINT('',(92.4,33.5,24.));
#1674=CARTESIAN_POINT('',(92.4,33.5,24.));
#1675=CARTESIAN_POINT('',(94.,33.5,24.));
#1676=CARTESIAN_POINT('Origin',(47.,29.5,24.));
#1677=CARTESIAN_POINT('',(94.,3.,24.));
#1678=CARTESIAN_POINT('',(94.,56.,24.));
#1679=CARTESIAN_POINT('',(94.,3.,24.));
#1680=CARTESIAN_POINT('',(91.,0.,24.));
#1681=CARTESIAN_POINT('Origin',(91.,3.,24.));
#1682=CARTESIAN_POINT('',(3.,0.,24.));
#1683=CARTESIAN_POINT('',(3.,0.,24.));
#1684=CARTESIAN_POINT('',(0.,3.,24.));
#1685=CARTESIAN_POINT('Origin',(3.,3.,24.));
#1686=CARTESIAN_POINT('',(0.,56.,24.));
#1687=CARTESIAN_POINT('',(0.,56.,24.));
#1688=CARTESIAN_POINT('',(3.,59.,24.));
#1689=CARTESIAN_POINT('Origin',(3.,56.,24.));
#1690=CARTESIAN_POINT('',(91.,59.,24.));
#1691=CARTESIAN_POINT('',(91.,59.,24.));
#1692=CARTESIAN_POINT('Origin',(91.,56.,24.));
#1693=CARTESIAN_POINT('',(92.4,56.,24.));
#1694=CARTESIAN_POINT('',(92.4,3.,24.));
#1695=CARTESIAN_POINT('',(91.,57.4,24.));
#1696=CARTESIAN_POINT('Origin',(91.,56.,24.));
#1697=CARTESIAN_POINT('',(3.,57.4,24.));
#1698=CARTESIAN_POINT('',(91.,57.4,24.));
#1699=CARTESIAN_POINT('',(1.6,56.,24.));
#1700=CARTESIAN_POINT('Origin',(3.,56.,24.));
#1701=CARTESIAN_POINT('',(1.6,54.3,24.));
#1702=CARTESIAN_POINT('',(1.6,56.,24.));
#1703=CARTESIAN_POINT('',(4.2,54.3,24.));
#1704=CARTESIAN_POINT('',(6.2,54.3,24.));
#1705=CARTESIAN_POINT('Origin',(6.2,52.8,24.));
#1706=CARTESIAN_POINT('',(1.6,7.7,24.));
#1707=CARTESIAN_POINT('',(1.6,56.,24.));
#1708=CARTESIAN_POINT('',(4.2,7.7,24.));
#1709=CARTESIAN_POINT('',(6.2,7.7,24.));
#1710=CARTESIAN_POINT('Origin',(6.2,6.2,24.));
#1711=CARTESIAN_POINT('',(1.6,3.,24.));
#1712=CARTESIAN_POINT('',(1.6,56.,24.));
#1713=CARTESIAN_POINT('',(3.,1.6,24.));
#1714=CARTESIAN_POINT('Origin',(3.,3.,24.));
#1715=CARTESIAN_POINT('',(91.,1.6,24.));
#1716=CARTESIAN_POINT('',(3.,1.6,24.));
#1717=CARTESIAN_POINT('',(92.4,3.,24.));
#1718=CARTESIAN_POINT('Origin',(91.,3.,24.));
#1719=CARTESIAN_POINT('',(92.4,3.,24.));
#1720=CARTESIAN_POINT('',(89.8,7.7,24.));
#1721=CARTESIAN_POINT('Origin',(87.8,6.2,24.));
#1722=CARTESIAN_POINT('',(92.4,7.7,24.));
#1723=CARTESIAN_POINT('',(94.,7.7,24.));
#1724=CARTESIAN_POINT('',(92.4,3.,24.));
#1725=CARTESIAN_POINT('Origin',(92.4,56.,24.));
#1726=CARTESIAN_POINT('',(92.4,56.,32.));
#1727=CARTESIAN_POINT('',(92.4,3.,32.));
#1728=CARTESIAN_POINT('',(92.4,56.,24.));
#1729=CARTESIAN_POINT('Origin',(4.2,7.7,24.));
#1730=CARTESIAN_POINT('',(4.2,7.7,24.));
#1731=CARTESIAN_POINT('',(1.6,7.7,32.));
#1732=CARTESIAN_POINT('',(1.6,7.7,24.));
#1733=CARTESIAN_POINT('',(6.2,7.7,32.));
#1734=CARTESIAN_POINT('Origin',(6.2,6.2,24.));
#1735=CARTESIAN_POINT('Origin',(0.,56.,24.));
#1736=CARTESIAN_POINT('',(0.,56.,32.));
#1737=CARTESIAN_POINT('',(0.,3.,32.));
#1738=CARTESIAN_POINT('',(0.,56.,32.));
#1739=CARTESIAN_POINT('',(0.,56.,24.));
#1740=CARTESIAN_POINT('',(0.,3.,24.));
#1741=CARTESIAN_POINT('Origin',(1.6,3.,24.));
#1742=CARTESIAN_POINT('',(1.6,3.,32.));
#1743=CARTESIAN_POINT('',(1.6,56.,32.));
#1744=CARTESIAN_POINT('',(1.6,3.,24.));
#1745=CARTESIAN_POINT('Origin',(87.8,6.2,24.));
#1746=CARTESIAN_POINT('',(89.8,7.7,24.));
#1747=CARTESIAN_POINT('Origin',(94.,7.7,24.));
#1748=CARTESIAN_POINT('',(92.4,7.7,32.));
#1749=CARTESIAN_POINT('',(94.,7.7,32.));
#1750=CARTESIAN_POINT('',(92.4,7.7,24.));
#1751=CARTESIAN_POINT('Origin',(92.4,56.,24.));
#1752=CARTESIAN_POINT('',(92.4,3.,32.));
#1753=CARTESIAN_POINT('Origin',(47.,29.5,32.));
#1754=CARTESIAN_POINT('',(94.,3.,32.));
#1755=CARTESIAN_POINT('',(94.,56.,32.));
#1756=CARTESIAN_POINT('',(94.,3.,32.));
#1757=CARTESIAN_POINT('',(91.,59.,32.));
#1758=CARTESIAN_POINT('Origin',(91.,56.,32.));
#1759=CARTESIAN_POINT('',(3.,59.,32.));
#1760=CARTESIAN_POINT('',(91.,59.,32.));
#1761=CARTESIAN_POINT('Origin',(3.,56.,32.));
#1762=CARTESIAN_POINT('',(3.,0.,32.));
#1763=CARTESIAN_POINT('Origin',(3.,3.,32.));
#1764=CARTESIAN_POINT('',(91.,0.,32.));
#1765=CARTESIAN_POINT('',(3.,0.,32.));
#1766=CARTESIAN_POINT('Origin',(91.,3.,32.));
#1767=CARTESIAN_POINT('',(92.4,3.,32.));
#1768=CARTESIAN_POINT('',(92.4,3.,32.));
#1769=CARTESIAN_POINT('',(91.,1.6,32.));
#1770=CARTESIAN_POINT('Origin',(91.,3.,32.));
#1771=CARTESIAN_POINT('',(3.,1.6,32.));
#1772=CARTESIAN_POINT('',(3.,1.6,32.));
#1773=CARTESIAN_POINT('Origin',(3.,3.,32.));
#1774=CARTESIAN_POINT('',(1.6,56.,32.));
#1775=CARTESIAN_POINT('',(1.6,54.3,32.));
#1776=CARTESIAN_POINT('',(6.2,54.3,32.));
#1777=CARTESIAN_POINT('',(1.6,56.,32.));
#1778=CARTESIAN_POINT('',(1.6,56.,32.));
#1779=CARTESIAN_POINT('',(3.,57.4,32.));
#1780=CARTESIAN_POINT('Origin',(3.,56.,32.));
#1781=CARTESIAN_POINT('',(91.,57.4,32.));
#1782=CARTESIAN_POINT('',(91.,57.4,32.));
#1783=CARTESIAN_POINT('Origin',(91.,56.,32.));
#1784=CARTESIAN_POINT('Origin',(94.,3.,24.));
#1785=CARTESIAN_POINT('',(94.,56.,24.));
#1786=CARTESIAN_POINT('',(94.,3.,24.));
#1787=CARTESIAN_POINT('Origin',(4.2,54.3,24.));
#1788=CARTESIAN_POINT('',(4.2,54.3,24.));
#1789=CARTESIAN_POINT('',(1.6,54.3,24.));
#1790=CARTESIAN_POINT('Origin',(6.2,52.8,24.));
#1791=CARTESIAN_POINT('Origin',(1.6,3.,24.));
#1792=CARTESIAN_POINT('Origin',(91.,1.6,24.));
#1793=CARTESIAN_POINT('',(3.,1.6,24.));
#1794=CARTESIAN_POINT('',(91.,1.6,24.));
#1795=CARTESIAN_POINT('Origin',(91.,3.,24.));
#1796=CARTESIAN_POINT('',(92.4,3.,24.));
#1797=CARTESIAN_POINT('Origin',(92.4,56.,24.));
#1798=CARTESIAN_POINT('Origin',(91.,56.,24.));
#1799=CARTESIAN_POINT('',(91.,57.4,24.));
#1800=CARTESIAN_POINT('Origin',(3.00000000000001,57.4,24.));
#1801=CARTESIAN_POINT('',(3.,57.4,24.));
#1802=CARTESIAN_POINT('Origin',(3.,56.,24.));
#1803=CARTESIAN_POINT('',(1.6,56.,24.));
#1804=CARTESIAN_POINT('Origin',(1.6,3.,24.));
#1805=CARTESIAN_POINT('Origin',(3.,3.,24.));
#1806=CARTESIAN_POINT('Origin',(3.,56.,24.));
#1807=CARTESIAN_POINT('',(3.,59.,24.));
#1808=CARTESIAN_POINT('Origin',(91.,59.,24.));
#1809=CARTESIAN_POINT('',(91.,59.,24.));
#1810=CARTESIAN_POINT('Origin',(91.,56.,24.));
#1811=CARTESIAN_POINT('Origin',(91.,3.,24.));
#1812=CARTESIAN_POINT('',(91.,0.,24.));
#1813=CARTESIAN_POINT('Origin',(3.,0.,24.));
#1814=CARTESIAN_POINT('',(3.,0.,24.));
#1815=CARTESIAN_POINT('Origin',(3.,3.,24.));
#1816=UNCERTAINTY_MEASURE_WITH_UNIT(LENGTH_MEASURE(0.01),#1820,
'DISTANCE_ACCURACY_VALUE',
'Maximum model space distance between geometric entities at asserted c
onnectivities');
#1817=UNCERTAINTY_MEASURE_WITH_UNIT(LENGTH_MEASURE(0.01),#1820,
'DISTANCE_ACCURACY_VALUE',
'Maximum model space distance between geometric entities at asserted c
onnectivities');
#1818=(
GEOMETRIC_REPRESENTATION_CONTEXT(3)
GLOBAL_UNCERTAINTY_ASSIGNED_CONTEXT((#1816))
GLOBAL_UNIT_ASSIGNED_CONTEXT((#1820,#1822,#1823))
REPRESENTATION_CONTEXT('','3D')
);
#1819=(
GEOMETRIC_REPRESENTATION_CONTEXT(3)
GLOBAL_UNCERTAINTY_ASSIGNED_CONTEXT((#1817))
GLOBAL_UNIT_ASSIGNED_CONTEXT((#1820,#1822,#1823))
REPRESENTATION_CONTEXT('','3D')
);
#1820=(
LENGTH_UNIT()
NAMED_UNIT(*)
SI_UNIT(.MILLI.,.METRE.)
);
#1821=(
LENGTH_UNIT()
NAMED_UNIT(*)
SI_UNIT($,.METRE.)
);
#1822=(
NAMED_UNIT(*)
PLANE_ANGLE_UNIT()
SI_UNIT($,.RADIAN.)
);
#1823=(
NAMED_UNIT(*)
SI_UNIT($,.STERADIAN.)
SOLID_ANGLE_UNIT()
);
#1824=SHAPE_DEFINITION_REPRESENTATION(#1825,#1826);
#1825=PRODUCT_DEFINITION_SHAPE('',$,#1828);
#1826=SHAPE_REPRESENTATION('',(#1116),#1818);
#1827=PRODUCT_DEFINITION_CONTEXT('part definition',#1832,'design');
#1828=PRODUCT_DEFINITION('2026-09-24-16-14-52-884','(Kaydedilmedi)',#1829,
#1827);
#1829=PRODUCT_DEFINITION_FORMATION('',$,#1834);
#1830=PRODUCT_RELATED_PRODUCT_CATEGORY('(Kaydedilmedi)',
'(Kaydedilmedi)',(#1834));
#1831=APPLICATION_PROTOCOL_DEFINITION('international standard',
'automotive_design',2009,#1832);
#1832=APPLICATION_CONTEXT(
'Core Data for Automotive Mechanical Design Process');
#1833=PRODUCT_CONTEXT('part definition',#1832,'mechanical');
#1834=PRODUCT('2026-09-24-16-14-52-884','(Kaydedilmedi)',$,(#1833));
#1835=PRESENTATION_STYLE_ASSIGNMENT((#1837));
#1836=PRESENTATION_STYLE_ASSIGNMENT((#1838));
#1837=SURFACE_STYLE_USAGE(.BOTH.,#1839);
#1838=SURFACE_STYLE_USAGE(.BOTH.,#1840);
#1839=SURFACE_SIDE_STYLE('',(#1841));
#1840=SURFACE_SIDE_STYLE('',(#1842));
#1841=SURFACE_STYLE_FILL_AREA(#1843);
#1842=SURFACE_STYLE_FILL_AREA(#1844);
#1843=FILL_AREA_STYLE('\X\C7elik - Saten',(#1845));
#1844=FILL_AREA_STYLE('Opaque(160,160,160)',(#1846));
#1845=FILL_AREA_STYLE_COLOUR('\X\C7elik - Saten',#1847);
#1846=FILL_AREA_STYLE_COLOUR('Opaque(160,160,160)',#1848);
#1847=COLOUR_RGB('\X\C7elik - Saten',0.627450980392157,0.627450980392157,
0.627450980392157);
#1848=COLOUR_RGB('Opaque(160,160,160)',0.627450980392157,0.627450980392157,
0.627450980392157);
ENDSEC;
END-ISO-10303-21;
